<svg width="153" height="28" viewBox="0 0 153 28" fill="none" xmlns="http://www.w3.org/2000/svg">
<path d="M25.3605 6.0625H22.9919C21.9347 6.0625 20.9992 7.87795 20.3929 8.48419V7.54705H18.5742V20.359H20.7778V13.9297C20.7737 12.5702 21.8718 11.4647 23.2313 11.459H24.4716L25.3605 7.85262V6.06332V6.0625Z" fill="#FF671D"/>
<path d="M25.3607 6.06269V7.85199L24.4718 11.4584H23.2315C21.872 11.4641 20.7747 12.5696 20.7779 13.9291V20.3584H18.5744V7.54724H20.3939V8.48438C21.0002 7.87814 21.9357 6.06269 22.9929 6.06269H25.3615M25.3615 5.39844H22.9929C22.4725 5.39844 21.9659 5.64518 21.4438 6.15338C21.1865 6.40421 20.9495 6.6918 20.7322 6.97532C20.6333 6.91649 20.5173 6.88299 20.3939 6.88299H18.5744C18.2076 6.88299 17.9102 7.18039 17.9102 7.54724V20.3592C17.9102 20.726 18.2076 21.0234 18.5744 21.0234H20.7779C21.1448 21.0234 21.4422 20.726 21.4422 20.3592V13.9283C21.4406 13.4479 21.6268 12.996 21.9651 12.6553C22.3034 12.3146 22.7535 12.1259 23.234 12.1235H24.4726C24.7782 12.1235 25.0437 11.9151 25.1172 11.6185L26.0062 8.01213C26.0192 7.95984 26.0258 7.90674 26.0258 7.85363V6.06432C26.0258 5.69747 25.7284 5.40007 25.3615 5.40007V5.39844Z" fill="black"/>
<path d="M45.2951 1.625H42.6561C40.4763 1.625 38.7441 4.83758 38.7441 7.26254V20.626H40.9289V11.5593H44.4291V7.841H41.4011C41.7157 7.5003 42.1602 7.28052 42.6569 7.26091H44.4291L45.2951 5.19381V1.625Z" fill="#FF671D"/>
<path d="M45.2945 1.62519V5.19481L44.4284 7.26191H42.6563C42.1595 7.28152 41.7151 7.5013 41.4005 7.84201H44.4284V11.5603H40.9291V20.627H38.7443V7.26355C38.7443 4.83777 40.4764 1.626 42.6563 1.626H45.2953L45.2945 1.62519ZM45.2945 0.960938H42.6555C41.9929 0.960938 41.3466 1.18481 40.7363 1.62682C40.2134 2.00511 39.7378 2.52638 39.3228 3.17755C38.5442 4.39739 38.0801 5.92524 38.0801 7.26273V20.6262C38.0801 20.993 38.3775 21.2904 38.7443 21.2904H40.9291C41.2959 21.2904 41.5933 20.993 41.5933 20.6262V12.2238H44.4293C44.7961 12.2238 45.0935 11.9264 45.0935 11.5595V7.84119C45.0935 7.73743 45.0698 7.63857 45.0265 7.55114C45.0314 7.54052 45.0371 7.52908 45.0412 7.51764L45.9073 5.45055C45.9416 5.36966 45.9587 5.28224 45.9587 5.194V1.62519C45.9587 1.25834 45.6613 0.960938 45.2945 0.960938Z" fill="black"/>
<path d="M16.8072 9.91336H7.76918V13.7975H13.8675C12.9034 15.6604 11.0046 16.7756 8.73246 16.7756C5.72577 16.7756 3.33513 14.5884 2.92498 11.6242C3.34738 8.68536 5.87039 6.42299 8.92692 6.41155C10.4981 6.41155 12.0676 7.18773 13.3642 8.31769L14.6862 6.69261V3.12298C12.9778 1.55182 10.9662 0.671875 8.92692 0.671875C4.36133 0.698837 0.671595 6.18114 0.660156 10.7467C0.660156 11.0564 0.676497 11.3628 0.707544 11.6643C0.676497 11.951 0.660973 12.2419 0.660156 12.5369C0.660156 17.0551 4.077 20.8028 8.70632 20.8028C13.0881 20.8028 16.607 17.2961 16.7803 12.8334L16.808 11.7035V9.91336H16.8072Z" fill="#FF671D"/>
<path d="M8.70991 21.1295C6.40505 21.1295 4.27422 20.2267 2.71124 18.5885C1.95956 17.8009 1.3713 16.8801 0.961965 15.8522C0.54446 14.8024 0.332031 13.6847 0.332031 12.5318C0.332031 12.241 0.348372 11.9476 0.377785 11.6592C0.347555 11.3561 0.332031 11.0481 0.332031 10.7425C0.33775 8.4205 1.26999 5.8256 2.82562 3.80098C3.62958 2.75518 4.54385 1.9218 5.5439 1.32618C6.63464 0.675824 7.77277 0.342474 8.92806 0.335938H8.93051C9.98367 0.335938 11.0385 0.558988 12.0647 0.99937C13.0712 1.43076 14.3573 2.06233 15.2413 2.87528C15.3099 2.93819 15.3483 3.02643 15.3483 3.11958V6.68838C15.3483 6.76437 15.3222 6.83872 15.274 6.89755L13.6252 8.52263C13.568 8.59289 13.4855 8.6362 13.3956 8.64355C13.3057 8.6509 13.2167 8.62231 13.1489 8.56266C11.7991 7.38613 10.3015 6.73822 8.92969 6.73822C7.54236 6.74313 6.20324 7.24969 5.16071 8.16395C4.13941 9.05942 3.46699 10.285 3.26437 11.6192C3.46128 12.9657 4.1051 14.1855 5.08064 15.0581C5.56923 15.496 6.12726 15.8367 6.73759 16.072C7.36915 16.3147 8.04157 16.4381 8.73687 16.4381C9.79003 16.4381 10.7901 16.1807 11.6284 15.6929C12.2967 15.304 12.8637 14.768 13.2918 14.1242H7.43778C7.25477 14.1242 7.10607 13.9755 7.10607 13.7925V9.90832C7.10607 9.72449 7.25477 9.5766 7.43778 9.5766H16.8116C16.9946 9.5766 17.1433 9.7253 17.1433 9.90832V11.7058L17.1156 12.8358V12.8407C17.0281 15.0875 16.1204 17.1758 14.5591 18.7225C12.9912 20.2749 10.9143 21.1295 8.71072 21.1295H8.70991ZM8.93132 0.99937C7.89696 1.00591 6.87158 1.30739 5.8846 1.89647C4.97034 2.44144 4.09529 3.23968 3.35343 4.20542C1.88358 6.11809 1.002 8.56266 0.997098 10.7425C0.997098 11.0358 1.01262 11.3332 1.04285 11.6249C1.0453 11.6478 1.0453 11.6715 1.04285 11.6944C1.01344 11.9713 0.997915 12.2532 0.997098 12.5326C0.997098 13.6005 1.19319 14.6349 1.57964 15.6071C1.95711 16.5557 2.49963 17.4046 3.19247 18.1301C4.62964 19.6359 6.5897 20.466 8.71154 20.466C10.8334 20.466 12.6497 19.6792 14.0925 18.2511C15.5338 16.8245 16.3721 14.8955 16.4529 12.8178L16.4807 11.6944V10.2409H7.7695V13.4616H13.8711C13.9871 13.4616 14.0942 13.5221 14.1546 13.6209C14.2151 13.7198 14.2192 13.8432 14.1661 13.9461C13.6628 14.9184 12.9005 15.7215 11.9609 16.2681C11.0213 16.8147 9.90605 17.1039 8.73524 17.1039C7.95824 17.1039 7.20575 16.9659 6.49819 16.6938C5.81188 16.4299 5.18604 16.0467 4.63699 15.5548C3.53317 14.5671 2.8101 13.1854 2.5993 11.6658C2.59522 11.6347 2.59522 11.6037 2.5993 11.5734C2.81663 10.0644 3.56994 8.67705 4.72196 7.66719C5.88542 6.64753 7.37896 6.08214 8.92806 6.07643C9.73038 6.07643 10.5572 6.26434 11.3865 6.63446C12.0516 6.93104 12.7011 7.33711 13.3221 7.84285L14.6833 6.57155V3.26583C13.885 2.55092 12.6995 1.9937 11.8016 1.60888C10.8587 1.20445 9.89216 0.99937 8.92969 0.99937H8.93132Z" fill="black"/>
<path d="M34.6061 7.86353V9.24923C33.6053 8.24672 32.2474 7.68215 30.8306 7.6797C28.5593 7.6748 26.5036 9.02536 25.6065 11.1121C25.1661 12.1366 25.0517 13.2192 25.216 14.2446C24.8132 16.7504 26.14 19.3053 28.5789 20.3527C30.6198 21.2817 33.0219 20.8511 34.6135 19.2718V20.6575H36.4878L36.5123 9.65202H36.5082L36.5123 7.86272H34.607L34.6061 7.86353ZM31.6852 11.7322C32.9582 12.0451 33.8937 13.0207 34.2148 14.2021C33.8765 15.5208 32.7964 16.5208 31.4524 16.7545C30.9769 16.8378 30.4899 16.8207 30.0218 16.7055C28.7431 16.3909 27.8051 15.408 27.4881 14.2201C27.9735 12.3891 29.8387 11.2779 31.6852 11.7322Z" fill="#FF671D"/>
<path d="M30.8138 7.67043H30.8269C32.2436 7.6737 33.6007 8.23745 34.6024 9.23995V7.85426H36.5085L36.5045 9.64357H36.5085L36.484 20.649H34.6098V19.2633C33.5778 20.2879 32.2036 20.8296 30.8089 20.8296C30.054 20.8296 29.2925 20.6711 28.576 20.3451C26.1379 19.2977 24.8102 16.7428 25.213 14.2369C25.0488 13.2116 25.1632 12.129 25.6036 11.1044C26.499 9.02099 28.5482 7.67124 30.8146 7.67206M30.8506 16.7992C31.0508 16.7992 31.2517 16.782 31.4495 16.7469C32.7935 16.5132 33.8736 15.5131 34.2119 14.1945C33.8908 13.0138 32.9553 12.0375 31.6823 11.7246C31.4029 11.6559 31.1235 11.6232 30.8481 11.6232C29.3031 11.6232 27.897 12.6592 27.4852 14.2132C27.803 15.4012 28.741 16.3841 30.0197 16.6987C30.2925 16.7657 30.572 16.7992 30.8514 16.7992M30.8154 7.00863C29.5727 7.00863 28.3684 7.36976 27.3308 8.0528C26.2932 8.73666 25.4851 9.70076 24.9949 10.843C24.5341 11.9157 24.378 13.0874 24.5423 14.2378C24.4483 14.8947 24.4581 15.5597 24.5725 16.2158C24.691 16.8956 24.9173 17.5476 25.2465 18.1546C25.5791 18.7682 26.0056 19.3181 26.5162 19.7895C27.0424 20.2756 27.6454 20.667 28.3088 20.953C29.1005 21.3125 29.942 21.4947 30.8105 21.4947C31.5982 21.4947 32.3678 21.3443 33.0974 21.0469C33.3932 20.926 33.6775 20.7838 33.948 20.6204V20.6507C33.948 21.0175 34.2454 21.3149 34.6122 21.3149H36.4865C36.8525 21.3149 37.1499 21.0183 37.1507 20.6523L37.1752 9.64684C37.1752 9.62232 37.1744 9.59863 37.1712 9.57494L37.1752 7.85753C37.1752 7.68105 37.1058 7.51192 36.9816 7.38692C36.8574 7.26191 36.6883 7.19165 36.5118 7.19165H34.6057C34.2388 7.19165 33.9414 7.48905 33.9414 7.85589V7.88122C33.6824 7.72435 33.4112 7.58627 33.1285 7.46862C32.3972 7.16468 31.6243 7.00945 30.8318 7.00781H30.8171L30.8154 7.00863ZM28.1789 14.2124C28.5604 13.0702 29.6332 12.2875 30.8489 12.2875C31.0753 12.2875 31.3024 12.3153 31.5246 12.37C32.0222 12.4926 32.4757 12.7467 32.8368 13.1053C33.1464 13.4125 33.3801 13.7884 33.5206 14.2002C33.3728 14.6553 33.1113 15.0638 32.7584 15.3906C32.3613 15.7574 31.8702 16.0009 31.3367 16.0932C31.1766 16.121 31.0132 16.1357 30.8514 16.1357C30.6251 16.1357 30.3979 16.1079 30.1782 16.054C29.6781 15.9315 29.223 15.6749 28.8611 15.3138C28.5514 15.0041 28.317 14.6267 28.1781 14.2124H28.1789Z" fill="black"/>
<path d="M54.1979 7.85572V9.24141C53.1963 8.23973 51.8392 7.67516 50.4224 7.67189C48.1503 7.66699 46.0954 9.01754 45.1983 11.1043C44.7579 12.1288 44.6435 13.2114 44.8078 14.2368C44.405 16.7426 45.7326 19.2975 48.1707 20.3449C50.21 21.2755 52.6121 20.8482 54.2053 19.2705V20.6562H56.0779L56.1041 9.64421H56.1L56.1041 7.8549H54.1979V7.85572ZM51.2893 11.7644C52.5671 12.0724 53.5067 13.0512 53.8254 14.2368C53.4798 15.5326 52.4152 16.5163 51.0899 16.7541C50.6177 16.839 50.1324 16.8243 49.6659 16.7124C48.3888 16.4044 47.4484 15.4256 47.1298 14.24C47.6126 12.4278 49.4567 11.3232 51.2893 11.7652V11.7644Z" fill="#FF671D"/>
<path d="M50.4105 7.67206H50.4236C51.8403 7.67533 53.1974 8.2399 54.1991 9.24159V7.85589H56.1052L56.1011 9.6452H56.1052L56.0791 20.6572H54.2064V19.2715C53.1745 20.2936 51.8027 20.8329 50.4097 20.8329C49.6531 20.8329 48.89 20.6735 48.1718 20.3459C45.7338 19.2985 44.4061 16.7436 44.8089 14.2378C44.6447 13.2124 44.7591 12.1298 45.1994 11.1052C46.0949 9.0218 48.144 7.67206 50.4105 7.67288V7.67206ZM50.4783 16.809C50.6834 16.809 50.8876 16.791 51.0903 16.7542C52.4155 16.5165 53.4801 15.5328 53.8257 14.2369C53.5071 13.0514 52.5675 12.0726 51.2896 11.7646C51.0167 11.6992 50.7438 11.6674 50.475 11.6674C48.9382 11.6674 47.5411 12.6976 47.1301 14.2394C47.4487 15.4249 48.3883 16.4037 49.6662 16.7117C49.9325 16.7763 50.2054 16.8081 50.4775 16.8081L50.4783 16.809ZM50.4105 7.00863C49.1678 7.00863 47.9635 7.36976 46.9258 8.0528C45.8882 8.73666 45.0802 9.70076 44.5899 10.843C44.1291 11.9166 43.9731 13.0874 44.1381 14.2378C44.0442 14.8947 44.054 15.5597 44.1675 16.2158C44.286 16.8956 44.5123 17.5476 44.8408 18.1546C45.1733 18.7682 45.5998 19.3181 46.1104 19.7895C46.6366 20.2756 47.2396 20.667 47.903 20.953C48.6964 21.3141 49.5395 21.4971 50.4097 21.4971C51.1965 21.4971 51.9645 21.3468 52.6933 21.051C52.9891 20.9309 53.2726 20.7887 53.5422 20.6262V20.658C53.5422 21.0249 53.8396 21.3223 54.2064 21.3223H56.0791C56.4451 21.3223 56.7417 21.0257 56.7433 20.6597L56.7695 9.64765C56.7695 9.62232 56.7678 9.59781 56.7654 9.57249L56.7695 7.85753C56.7695 7.68105 56.7 7.51192 56.5758 7.38692C56.4517 7.26191 56.2825 7.19165 56.106 7.19165H54.1999C53.8331 7.19165 53.5357 7.48905 53.5357 7.85589V7.88204C53.2767 7.72517 53.0054 7.58709 52.7227 7.46944C51.9915 7.1655 51.2185 7.01026 50.426 7.00781H50.4113L50.4105 7.00863ZM47.8238 14.2394C48.2037 13.1078 49.2699 12.3316 50.4759 12.3316C50.6965 12.3316 50.9179 12.3578 51.1352 12.41C52.0748 12.6364 52.8265 13.3292 53.1337 14.2378C52.9833 14.683 52.7243 15.0842 52.3763 15.4045C51.9841 15.7656 51.4988 16.0066 50.9734 16.1014C50.8108 16.1308 50.6442 16.1455 50.4783 16.1455C50.2577 16.1455 50.0371 16.1194 49.8222 16.0679C48.8826 15.8416 48.131 15.1487 47.8238 14.2402V14.2394Z" fill="black"/>
<path d="M67.8452 12.2812C67.8444 9.73862 65.7822 7.67887 63.2396 7.67969C62.1521 7.67969 61.103 8.08249 60.2941 8.80965V7.84473H58.4746V20.6567H60.6782V14.1253C60.7133 12.8066 61.7738 11.7453 63.0925 11.7109C64.4627 11.675 65.6016 12.7559 65.6384 14.1253V20.6567H67.8435V14.1253C67.8435 14.1073 67.8435 14.0893 67.8435 14.0714C67.8435 14.064 67.8435 14.0566 67.8435 14.0485V12.3352C67.8435 12.3172 67.8435 12.2992 67.8435 12.2812H67.8452Z" fill="#FF671D"/>
<path d="M63.2425 7.67206C65.7835 7.67206 67.8449 9.73181 67.8457 12.2736C67.8457 12.2916 67.8457 12.3096 67.8457 12.3275V14.0409C67.8457 14.0482 67.8457 14.0556 67.8457 14.0637C67.8457 14.0817 67.8457 14.0997 67.8457 14.1177V20.649H65.6405V14.1177C65.6054 12.7704 64.5016 11.7025 63.1616 11.7025C63.1396 11.7025 63.1167 11.7025 63.0946 11.7033C61.7759 11.7384 60.7146 12.799 60.6803 14.1177V20.649H58.4767V7.8371H60.2963V8.80202C61.1051 8.07568 62.1542 7.67288 63.2417 7.67206H63.2441M63.2441 7.00781H63.2417C62.4214 7.00781 61.6232 7.20635 60.9074 7.57729C60.8061 7.33953 60.5708 7.17285 60.2963 7.17285H58.4767C58.1099 7.17285 57.8125 7.47025 57.8125 7.8371V20.649C57.8125 21.0159 58.1099 21.3133 58.4767 21.3133H60.6803C61.0471 21.3133 61.3445 21.0159 61.3445 20.649V14.1266C61.374 13.1642 62.1493 12.3921 63.1126 12.3659C63.1289 12.3659 63.1453 12.3659 63.1616 12.3659C63.6363 12.3659 64.0865 12.5489 64.4272 12.8807C64.7671 13.2107 64.9616 13.6536 64.9763 14.1275V20.6498C64.9763 21.0167 65.2737 21.3141 65.6405 21.3141H67.8457C68.2125 21.3141 68.5099 21.0167 68.5099 20.6498V14.1217C68.5099 14.1029 68.5099 14.0833 68.5099 14.0645C68.5099 14.0564 68.5099 14.0482 68.5099 14.04V12.3324C68.5099 12.3136 68.5099 12.294 68.5099 12.2752C68.5099 11.5644 68.3702 10.8748 68.0949 10.2253C67.8293 9.59781 67.4494 9.03488 66.9666 8.55201C66.4829 8.06914 65.9199 7.68922 65.2933 7.4245C64.6437 7.14998 63.9542 7.01026 63.2433 7.01026L63.2441 7.00781Z" fill="black"/>
<path d="M80.8189 7.85572H78.9128V9.24141C77.9119 8.23891 76.554 7.67434 75.1373 7.67189C72.8659 7.66699 70.8103 9.01755 69.9131 11.1043C69.4728 12.1288 69.3584 13.2114 69.5226 14.2368C69.1198 16.7426 70.4467 19.2975 72.8855 20.3449C74.9248 21.2755 77.3269 20.8482 78.9201 19.2705V20.6562H80.7944L80.8189 9.64421H80.8148L80.8189 7.8549V7.85572ZM75.9796 11.7685C77.2591 12.0749 78.202 13.0545 78.5206 14.2417C78.1154 15.7614 76.7338 16.8227 75.1528 16.8137C73.5563 16.8047 72.218 15.7164 71.8242 14.2449C72.3062 12.4352 74.147 11.3306 75.9788 11.7693L75.9796 11.7685Z" fill="#FF671D"/>
<path d="M75.1244 7.67125H75.1374C76.5542 7.67451 77.9113 8.23827 78.913 9.24077V7.85508H80.8191L80.815 9.64438H80.8191L80.7946 20.6564H78.9203V19.2707C77.8884 20.2928 76.5166 20.832 75.1244 20.832C74.3678 20.832 73.6047 20.6727 72.8865 20.3451C70.4485 19.2977 69.1208 16.7428 69.5236 14.2369C69.3594 13.2116 69.4738 12.129 69.9141 11.1044C70.8096 9.02099 72.8587 7.67125 75.1252 7.67206M75.1726 16.8139C76.7446 16.8139 78.1164 15.7558 78.52 14.2418C78.2013 13.0547 77.2585 12.0751 75.979 11.7687C75.7077 11.7041 75.4365 11.6723 75.1693 11.6723C73.6317 11.6723 72.2353 12.7025 71.8244 14.2443C72.2174 15.7158 73.5557 16.8041 75.153 16.8131H75.1726M75.1244 7.00781C73.8817 7.00781 72.6774 7.36894 71.6397 8.05198C70.6021 8.73584 69.794 9.69994 69.3038 10.8422C68.843 11.9149 68.687 13.0866 68.8512 14.2369C68.7564 14.8938 68.767 15.5589 68.8814 16.215C68.9999 16.8948 69.2262 17.5467 69.5546 18.1538C69.8872 18.7674 70.3137 19.3173 70.8243 19.7887C71.3505 20.2748 71.9535 20.6662 72.6169 20.9521C73.0123 21.1319 73.4274 21.2692 73.8506 21.3607C74.2681 21.4505 74.6962 21.4963 75.1236 21.4963C75.9104 21.4963 76.6784 21.346 77.4072 21.0502C77.7029 20.9301 77.9864 20.7879 78.2561 20.6253V20.6572C78.2561 21.024 78.5535 21.3214 78.9203 21.3214H80.7946C81.1606 21.3214 81.458 21.0249 81.4588 20.6588L81.4834 9.64684C81.4834 9.62232 81.4825 9.59863 81.4793 9.57494L81.4834 7.85753C81.4834 7.68105 81.4139 7.51192 81.2897 7.38692C81.1655 7.26191 80.9964 7.19165 80.8199 7.19165H78.9138C78.5469 7.19165 78.2495 7.48905 78.2495 7.8559V7.88122C77.9905 7.72435 77.7193 7.58627 77.4366 7.46862C76.7045 7.16468 75.9324 7.00945 75.1399 7.00781H75.126H75.1244ZM72.5172 14.2435C72.8971 13.1119 73.9634 12.3357 75.1693 12.3357C75.3883 12.3357 75.6089 12.3618 75.8246 12.4133C76.7666 12.6388 77.5191 13.3317 77.8271 14.2418C77.4464 15.3734 76.3793 16.1488 75.1726 16.1488H75.1562C74.5296 16.1455 73.938 15.9396 73.4462 15.554C73.0164 15.2174 72.6912 14.7566 72.5172 14.2427V14.2435Z" fill="black"/>
<path d="M16.7842 9.256C16.611 13.7186 13.092 17.2254 8.71022 17.2254C4.0809 17.2254 0.664062 13.4776 0.664062 8.95942C0.675501 4.39464 4.36523 0.691842 8.93001 0.664062C10.9693 0.664062 12.9809 1.54401 14.6893 3.11517L13.3673 4.74025C12.0715 3.61029 10.502 2.83411 8.93001 2.83411C5.57608 2.84636 2.86434 5.57036 2.86597 8.92429C2.86597 12.3411 5.42819 14.9883 8.73555 14.9883C11.681 14.9883 13.9989 12.8379 14.4662 10.0559H7.77308V8.12604H16.8119L16.7842 9.256Z" fill="#FFED23"/>
<path d="M8.92937 0.664249C10.9687 0.664249 12.9802 1.5442 14.6887 3.11535L13.3667 4.74044C12.0709 3.61048 10.5013 2.83429 8.92937 2.83429C5.57545 2.84655 2.86371 5.56973 2.86534 8.92447C2.86534 12.3413 5.42756 14.9885 8.73492 14.9885C11.6803 14.9885 13.9983 12.8381 14.4664 10.0561H7.77245V8.12623H16.8113L16.7835 9.25619C16.6103 13.7188 13.0914 17.2255 8.70959 17.2255C4.08027 17.2255 0.663432 13.4778 0.663432 8.95961C0.675688 4.39401 4.3646 0.691212 8.93019 0.664249M8.93019 0H8.92611C7.72098 0.00735332 6.55262 0.249196 5.45371 0.718991C4.39156 1.17326 3.43808 1.81954 2.61941 2.64147C1.80075 3.46259 1.15774 4.41853 0.707552 5.4823C0.241025 6.58367 0.00326814 7.75284 0 8.95797V8.95961C0 10.1549 0.219782 11.3135 0.653628 12.4026C1.07849 13.4696 1.68963 14.4264 2.47071 15.2451C4.09743 16.9502 6.31323 17.889 8.70959 17.889C11.106 17.889 13.1608 17 14.7916 15.3856C15.5841 14.6004 16.2173 13.6804 16.6724 12.6518C17.1406 11.5921 17.4012 10.458 17.447 9.2807C17.447 9.27743 17.447 9.27416 17.447 9.27171L17.4747 8.14175C17.4788 7.96282 17.411 7.78961 17.286 7.66215C17.161 7.53388 16.9894 7.46198 16.8105 7.46198H7.77245C7.4056 7.46198 7.1082 7.75938 7.1082 8.12623V10.0561C7.1082 10.4229 7.4056 10.7203 7.77245 10.7203H13.6232C13.3291 11.6289 12.8005 12.4443 12.0921 13.0677C11.6403 13.4656 11.128 13.776 10.5708 13.9893C9.9907 14.2115 9.37302 14.3251 8.73655 14.3251C7.31818 14.3251 6.00521 13.7752 5.03865 12.776C4.06638 11.7718 3.53122 10.4041 3.53122 8.92447C3.53122 8.19323 3.67339 7.48486 3.95445 6.81734C4.22652 6.1727 4.61543 5.59342 5.11137 5.09503C5.60731 4.59664 6.18577 4.20528 6.82878 3.93076C7.49466 3.64724 8.20221 3.50181 8.93264 3.49854C10.2227 3.49854 11.6436 4.11786 12.932 5.24128C13.0538 5.34668 13.2082 5.40469 13.3683 5.40469C13.3871 5.40469 13.4059 5.40387 13.4247 5.40224C13.6036 5.38671 13.7695 5.29929 13.8831 5.15958L15.205 3.53449C15.4264 3.26242 15.3978 2.86452 15.1397 2.62677C14.2278 1.78849 13.2376 1.1365 12.1967 0.690395C11.1272 0.232038 10.0283 0 8.92937 0H8.93019Z" fill="black"/>
<path d="M24.4716 8.17653H23.2313C21.871 8.18225 20.772 9.29015 20.7778 10.6505V17.0765H18.5742V6.05469H20.3929V6.99183C20.9992 6.38559 21.9347 6.05469 22.9919 6.05469H25.3605L24.4716 8.17734V8.17653Z" fill="#FFED23"/>
<path d="M25.3607 6.05487L24.4718 8.17753H23.2315C21.8711 8.18325 20.7722 9.29115 20.7779 10.6515V17.0775H18.5744V6.05487H20.3939V6.99201C21.0002 6.38577 21.9357 6.05487 22.9929 6.05487H25.3615M25.3615 5.39062H22.9929C22.3883 5.39062 21.8189 5.48458 21.3008 5.67087C21.1987 5.70763 21.0999 5.74685 21.0035 5.79016C20.9013 5.55485 20.6668 5.39062 20.3939 5.39062H18.5744C18.2076 5.39062 17.9102 5.68803 17.9102 6.05487V17.0775C17.9102 17.4443 18.2076 17.7417 18.5744 17.7417H20.7779C21.1448 17.7417 21.4422 17.4443 21.4422 17.0775V10.6491C21.4406 10.1686 21.6252 9.71519 21.9643 9.37449C22.3025 9.03378 22.7527 8.84423 23.2331 8.84178H24.4726C24.7398 8.84178 24.9816 8.68082 25.0854 8.43408L25.9743 6.31142C26.0601 6.10635 26.038 5.87186 25.9146 5.68721C25.7913 5.50256 25.5837 5.39144 25.3615 5.39144V5.39062Z" fill="black"/>
<path d="M34.2348 12.3743C34.694 10.5065 33.5526 8.62 31.6849 8.16083C29.8171 7.70165 27.9306 8.84305 27.4714 10.7108C27.0123 12.5785 28.1537 14.4651 30.0214 14.9242C30.4896 15.0394 30.9773 15.0558 31.452 14.9733C32.8116 14.7371 33.9015 13.7158 34.2259 12.3743H34.2348ZM36.4874 17.0869H34.6131V15.7012C33.0224 17.2806 30.6195 17.7111 28.5785 16.7822C25.7001 15.5452 24.37 12.2092 25.607 9.33082C26.5041 7.24411 28.5597 5.89274 30.8311 5.89846C32.2478 5.90172 33.6049 6.46548 34.6066 7.46798V6.08229H36.5127L36.4882 17.0877L36.4874 17.0869Z" fill="#FFED23"/>
<path d="M30.8156 5.88918H30.8286C32.2454 5.89245 33.6025 6.4562 34.6041 7.4587V6.07301H36.5103L36.4858 17.0785H34.6115V15.6928C33.5788 16.7173 32.2053 17.259 30.8107 17.259C30.0557 17.259 29.2942 17.1005 28.5777 16.7745C25.6993 15.5375 24.3691 12.2016 25.6053 9.32318C26.5008 7.23974 28.5499 5.89081 30.8164 5.89081M30.8523 15.0179C31.0525 15.0179 31.2535 15.0008 31.4512 14.9656C32.8108 14.7287 33.9007 13.7082 34.225 12.3666H34.234C34.6932 10.4989 33.5518 8.61236 31.6841 8.15318C31.4046 8.08455 31.1252 8.05187 30.8499 8.05187C29.2844 8.05187 27.862 9.11483 27.4714 10.7031C27.0123 12.5709 28.1537 14.4574 30.0214 14.9166C30.2943 14.9836 30.5737 15.0171 30.8531 15.0171L30.8523 15.0179ZM30.8164 5.22656C29.5737 5.22656 28.3685 5.58769 27.3309 6.27155C26.2933 6.95541 25.4852 7.91951 24.995 9.06173C24.6576 9.84771 24.4835 10.6762 24.4786 11.5243C24.4737 12.3438 24.6257 13.1461 24.9313 13.9108C25.236 14.6748 25.678 15.3619 26.2451 15.9534C26.8309 16.5637 27.5254 17.045 28.3081 17.3824C29.0998 17.7419 29.9413 17.9241 30.8098 17.9241C31.5975 17.9241 32.3671 17.7738 33.0967 17.4764C33.3925 17.3554 33.6768 17.2133 33.9473 17.0499V17.0801C33.9473 17.447 34.2447 17.7444 34.6115 17.7444H36.4858C36.8518 17.7444 37.1492 17.4478 37.15 17.0817L37.1745 6.07628C37.1745 5.8998 37.1051 5.73067 36.9809 5.60567C36.8567 5.48066 36.6876 5.4104 36.5111 5.4104H34.605C34.2381 5.4104 33.9407 5.7078 33.9407 6.07465V6.09997C33.6817 5.9431 33.4105 5.80502 33.1278 5.68737C32.3965 5.38343 31.6236 5.2282 30.8311 5.22656H30.8172H30.8164ZM30.8523 14.3537C30.626 14.3537 30.3989 14.3259 30.1791 14.272C29.4478 14.0922 28.831 13.6388 28.4413 12.9941C28.0515 12.3503 27.9355 11.5929 28.1153 10.8617C28.1929 10.5471 28.3211 10.2513 28.4976 9.98416C28.6684 9.72516 28.8792 9.49802 29.1259 9.30684C29.6186 8.92528 30.2314 8.7153 30.8499 8.7153C31.0762 8.7153 31.3033 8.74308 31.5256 8.79782C32.2568 8.97757 32.8737 9.43103 33.2634 10.0757C33.6368 10.6933 33.7585 11.414 33.6098 12.1166C33.5976 12.1469 33.5878 12.1779 33.5796 12.2106C33.3173 13.2956 32.4366 14.12 31.3368 14.3112C31.1767 14.339 31.0133 14.3537 30.8515 14.3537H30.8523Z" fill="black"/>
<path d="M40.9215 5.44745V6.05369H44.4283V7.98189H40.9289V17.0485H38.7441V5.47523C38.7441 3.04945 40.4763 1.61719 42.6561 1.61719H45.2943L44.4283 3.68429H42.6561C41.7034 3.72269 40.9436 4.49478 40.9215 5.44826V5.44745Z" fill="#FFED23"/>
<path d="M45.2945 1.60956L44.4284 3.67666H42.6563C41.7036 3.71506 40.9438 4.48716 40.9217 5.44064V6.04688H44.4284V7.97508H40.9291V17.0417H38.7443V5.4676C38.7443 3.04182 40.4764 1.60956 42.6563 1.60956H45.2953M45.2953 0.945312H42.6563C42.0353 0.945312 41.443 1.04744 40.8964 1.24762C40.3384 1.45269 39.8449 1.75418 39.429 2.14472C38.9992 2.54752 38.6651 3.03365 38.4355 3.58842C38.2002 4.15871 38.0801 4.7911 38.0801 5.46842V17.0417C38.0801 17.4086 38.3775 17.706 38.7443 17.706H40.9291C41.2959 17.706 41.5933 17.4086 41.5933 17.0417V8.63933H44.4293C44.7961 8.63933 45.0935 8.34193 45.0935 7.97508V6.04688C45.0935 5.68003 44.7961 5.38263 44.4293 5.38263H41.5901C41.6391 4.81888 42.0999 4.36869 42.671 4.34009H44.4284C44.6964 4.34009 44.9375 4.17914 45.0404 3.93321L45.9065 1.86611C45.9922 1.66104 45.9702 1.42655 45.8468 1.2419C45.7234 1.05725 45.5167 0.945312 45.2945 0.945312H45.2953Z" fill="black"/>
<path d="M53.8466 12.373C54.2951 10.5126 53.1505 8.64078 51.2893 8.19223C49.4289 7.74368 47.5571 8.88834 47.1093 10.7495C46.6608 12.6099 47.8054 14.4818 49.6658 14.9303C50.1323 15.0431 50.6177 15.057 51.0899 14.972C52.4429 14.7293 53.5247 13.7097 53.8466 12.373ZM56.0779 17.0857H54.2053V15.7C52.6129 17.2777 50.21 17.705 48.1706 16.7744C45.2922 15.5374 43.9621 12.2014 45.1983 9.32301C46.0954 7.2363 48.151 5.88492 50.4224 5.89064C51.8391 5.89391 53.1962 6.45848 54.1979 7.46017V6.07448H56.1041L56.0779 17.0865V17.0857Z" fill="#FFED23"/>
<path d="M50.4113 5.88836H50.4243C51.8411 5.89163 53.1982 6.4562 54.1998 7.45789V6.07219H56.106L56.0798 17.0842H54.2072V15.6985C53.1753 16.7206 51.8035 17.2599 50.4104 17.2599C49.6539 17.2599 48.8908 17.1005 48.1726 16.7729C45.2942 15.5359 43.964 12.2 45.201 9.32236C46.0965 7.23892 48.1456 5.89 50.4121 5.89M50.4799 15.0269C50.685 15.0269 50.8892 15.0089 51.0918 14.9722C52.4449 14.7295 53.5266 13.7098 53.8485 12.3732C54.2971 10.5128 53.1524 8.64095 51.2912 8.19322C51.0183 8.12704 50.7454 8.09599 50.4766 8.09599C48.9128 8.09599 47.4936 9.16222 47.1104 10.7497C46.6619 12.6101 47.8066 14.4819 49.6669 14.9305C49.9333 14.995 50.2062 15.0269 50.4783 15.0269H50.4799ZM50.4121 5.22656C49.1694 5.22656 47.9642 5.58769 46.9266 6.27155C45.889 6.95541 45.0809 7.91951 44.5907 9.06173C44.2533 9.84771 44.0792 10.6762 44.0743 11.5243C44.0694 12.3438 44.2214 13.1461 44.527 13.9108C44.8317 14.6748 45.2737 15.3619 45.8408 15.9534C46.4266 16.5637 47.1202 17.0442 47.9038 17.3824C48.6971 17.7435 49.5403 17.9266 50.4104 17.9266C51.1972 17.9266 51.9653 17.7762 52.6941 17.4805C52.9898 17.3604 53.2733 17.2182 53.543 17.0556V17.0883C53.543 17.4551 53.8404 17.7525 54.2072 17.7525H56.0798C56.4459 17.7525 56.7425 17.4559 56.7441 17.0899L56.7702 6.07791C56.7702 5.90143 56.7008 5.73231 56.5766 5.6073C56.4516 5.48229 56.2833 5.41203 56.1068 5.41203H54.2007C53.8338 5.41203 53.5364 5.70943 53.5364 6.07628V6.10242C53.2774 5.94555 53.0062 5.80747 52.7235 5.68982C51.9914 5.38588 51.2193 5.23065 50.4268 5.2282H50.4121V5.22656ZM50.4799 14.3635C50.2593 14.3635 50.0387 14.3373 49.8238 14.2858C49.0966 14.1102 48.4806 13.6624 48.0901 13.0243C47.6995 12.3862 47.581 11.6338 47.7567 10.9066C47.8327 10.592 47.9593 10.2971 48.1342 10.0299C48.3033 9.77091 48.5133 9.54378 48.7584 9.35259C49.2494 8.97103 49.8598 8.76024 50.4766 8.76024C50.6972 8.76024 50.9186 8.78638 51.136 8.83867C51.8631 9.01434 52.4792 9.46207 52.8697 10.1002C53.2603 10.7383 53.3787 11.4908 53.2031 12.2179C52.9424 13.2981 52.0682 14.1224 50.975 14.3185C50.8124 14.3479 50.6457 14.3626 50.4799 14.3626V14.3635Z" fill="black"/>
<path d="M67.8455 10.5539V17.0853H65.6403V10.5539C65.6044 9.18455 64.4646 8.1028 63.0944 8.13956C61.7757 8.1747 60.7144 9.23521 60.6801 10.5539V17.0853H58.4766V6.06348H60.2961V7.0284C61.105 6.30205 62.154 5.89925 63.2415 5.89844C65.7841 5.89762 67.8455 7.95737 67.8471 10.5C67.8471 10.518 67.8471 10.5359 67.8471 10.5539H67.8455Z" fill="#FFED23"/>
<path d="M63.2425 5.89163C65.7843 5.89163 67.8449 7.95137 67.8457 10.4932C67.8457 10.5111 67.8457 10.5291 67.8457 10.5471V17.0785H65.6405V10.5471C65.6054 9.1998 64.5016 8.13194 63.1616 8.13194C63.1396 8.13194 63.1175 8.13194 63.0946 8.13276C61.7759 8.16789 60.7146 9.2284 60.6803 10.5471V17.0785H58.4767V6.05585H60.2963V7.02077C61.1051 6.29443 62.1542 5.89163 63.2417 5.89081H63.2441M63.2441 5.22656H63.2417C62.4214 5.22656 61.6232 5.4251 60.9074 5.79604C60.8061 5.55828 60.5708 5.3916 60.2963 5.3916H58.4767C58.1099 5.3916 57.8125 5.689 57.8125 6.05585V17.0785C57.8125 17.4453 58.1099 17.7427 58.4767 17.7427H60.6803C61.0471 17.7427 61.3445 17.4453 61.3445 17.0785V10.5561C61.374 9.59361 62.1493 8.82152 63.1126 8.79537C63.1289 8.79537 63.1453 8.79537 63.1616 8.79537C63.6371 8.79537 64.0865 8.97839 64.4272 9.3101C64.7671 9.641 64.9624 10.083 64.9763 10.5569V17.0793C64.9763 17.4461 65.2737 17.7435 65.6405 17.7435H67.8457C68.2125 17.7435 68.5099 17.4461 68.5099 17.0793V10.5512C68.5099 10.5316 68.5099 10.5128 68.5099 10.4932C68.5099 9.78235 68.3702 9.09277 68.0949 8.44323C67.8293 7.81656 67.4494 7.25363 66.9666 6.76994C66.4829 6.28707 65.9199 5.90715 65.2933 5.64243C64.6437 5.36791 63.9542 5.2282 63.2433 5.2282L63.2441 5.22656Z" fill="black"/>
<path d="M78.5454 12.373C78.9907 10.5118 77.8436 8.6416 75.9824 8.19632C74.1211 7.75103 72.251 8.89815 71.8057 10.7594C71.7436 11.0167 71.7117 11.2814 71.7101 11.5462C71.6995 13.4597 73.242 15.0202 75.1555 15.0308C76.7659 15.0398 78.1704 13.9384 78.5446 12.3722L78.5454 12.373ZM80.798 17.0857H78.9237V15.7C77.3313 17.2777 74.9284 17.705 72.8891 16.7744C70.0106 15.5374 68.6805 12.2014 69.9175 9.32301C70.8146 7.2363 72.8703 5.88492 75.1416 5.89064C76.5584 5.89391 77.9155 6.45767 78.9171 7.46017V6.07448H80.8233L80.7988 17.0865L80.798 17.0857Z" fill="#FFED23"/>
<path d="M75.1241 5.88137H75.1372C76.554 5.88463 77.9111 6.44839 78.9127 7.45089V6.0652H80.8189L80.7944 17.0772H78.9201V15.6915C77.8882 16.7136 76.5164 17.2529 75.1241 17.2529C74.3668 17.2529 73.6045 17.0935 72.8863 16.7659C70.0079 15.5289 68.6777 12.193 69.9139 9.31536C70.8094 7.23192 72.8585 5.883 75.125 5.883M75.1724 15.0248C76.7746 15.0248 78.1684 13.9259 78.5418 12.3662C78.9879 10.505 77.84 8.63477 75.9788 8.18949C75.7075 8.12494 75.4363 8.09308 75.1691 8.09308C73.6028 8.09308 72.1828 9.16258 71.8021 10.7525C71.74 11.0107 71.7081 11.2746 71.7065 11.5393C71.6959 13.4528 73.2384 15.0134 75.1519 15.024H75.1715M75.1241 5.21875C73.8814 5.21875 72.6763 5.57988 71.6395 6.26374C70.6019 6.9476 69.7938 7.9117 69.3036 9.05391C68.9662 9.8399 68.7921 10.6684 68.7872 11.5165C68.7823 12.3359 68.9343 13.1383 69.2399 13.903C69.5446 14.6669 69.9866 15.3541 70.5537 15.9456C71.1395 16.5559 71.8331 17.0363 72.6167 17.3746C73.41 17.7357 74.2532 17.9187 75.1233 17.9187C75.9101 17.9187 76.6781 17.7684 77.4069 17.4726C77.7027 17.3525 77.9862 17.2104 78.2558 17.0478V17.0805C78.2558 17.4473 78.5532 17.7447 78.9201 17.7447H80.7944C81.1604 17.7447 81.4578 17.4481 81.4586 17.0821L81.4831 6.0701C81.4831 5.89362 81.4137 5.72449 81.2895 5.59949C81.1645 5.47448 80.9962 5.40422 80.8197 5.40422H78.9136C78.5467 5.40422 78.2493 5.70162 78.2493 6.06847V6.09379C77.9903 5.93692 77.7191 5.79885 77.4364 5.68119C76.7043 5.37726 75.9322 5.22202 75.1397 5.22038H75.1258L75.1241 5.21875ZM75.1715 14.3597H75.1552C74.4068 14.3557 73.705 14.0599 73.1788 13.528C72.6526 12.9961 72.3658 12.291 72.3699 11.5426C72.3707 11.3285 72.3969 11.1145 72.4467 10.9061C72.5219 10.5916 72.6494 10.2958 72.8234 10.0278C72.9925 9.76882 73.2025 9.54087 73.4476 9.34968C73.9386 8.96731 74.5498 8.75651 75.1675 8.75651C75.3864 8.75651 75.607 8.78266 75.8227 8.83413C76.5507 9.00816 77.1667 9.45589 77.5581 10.0932C77.9495 10.7313 78.0687 11.483 77.8947 12.2109C77.8204 12.5206 77.6962 12.8123 77.5238 13.0786C77.3563 13.3376 77.1479 13.5664 76.9053 13.7584C76.6626 13.9504 76.3914 14.0991 76.1005 14.2021C75.8023 14.3074 75.4894 14.3606 75.1707 14.3606L75.1715 14.3597Z" fill="black"/>
<path d="M121.526 12.7391L114.819 6.32594C114.819 6.32594 114.818 6.32561 114.818 6.32544C114.454 5.9793 114.123 5.82031 113.694 5.82031C113.264 5.82031 112.898 5.97798 112.641 6.27915C112.388 6.5757 112.264 6.98527 112.264 7.45498V17.0847C112.264 17.228 112.38 17.344 112.523 17.344H114.746C114.889 17.344 115.005 17.2279 115.005 17.0847V10.4612L121.71 16.9694C122.059 17.3172 122.406 17.4925 122.852 17.4925C123.267 17.4925 123.633 17.333 123.893 17.0326C124.149 16.7356 124.282 16.3227 124.282 15.8425V6.10896C124.282 5.96579 124.166 5.84964 124.023 5.84964H121.785C121.642 5.84964 121.526 5.96579 121.526 6.10896V12.7387L121.526 12.7391Z" fill="white"/>
<path d="M122.852 17.8763C122.323 17.8763 121.874 17.6748 121.439 17.2424L115.393 11.3734V17.0814C115.393 17.4379 115.103 17.7279 114.746 17.7279H112.523C112.167 17.7279 111.877 17.4379 111.877 17.0814V7.45168C111.877 6.87818 112.04 6.38459 112.347 6.02428C112.675 5.6409 113.153 5.42969 113.694 5.42969C114.236 5.42969 114.641 5.61833 115.085 6.04141C115.087 6.04256 115.088 6.04372 115.089 6.04487L121.139 11.8298V6.10583C121.139 5.74931 121.429 5.45934 121.785 5.45934H124.023C124.379 5.45934 124.669 5.74931 124.669 6.10583V15.8392C124.669 16.4166 124.502 16.9155 124.186 17.2822C123.855 17.6653 123.381 17.8762 122.852 17.8762L122.852 17.8763ZM115.005 10.0707C115.104 10.0707 115.201 10.1086 115.275 10.1801L121.98 16.6883C121.981 16.6895 121.982 16.6905 121.983 16.6916C122.276 16.9831 122.528 17.102 122.852 17.102C123.157 17.102 123.416 16.9895 123.6 16.7765C123.793 16.5526 123.895 16.2285 123.895 15.8393V6.23368H121.913V12.7358C121.913 12.8908 121.821 13.0308 121.678 13.0918C121.536 13.1526 121.371 13.1228 121.259 13.0157L114.552 6.60255C114.552 6.60255 114.55 6.6014 114.55 6.60074C114.249 6.31539 114.009 6.20418 113.694 6.20418C113.379 6.20418 113.117 6.31589 112.936 6.52726C112.75 6.74539 112.651 7.06501 112.651 7.45168V16.9537H114.618V10.4581C114.618 10.3025 114.711 10.162 114.855 10.1015C114.903 10.081 114.955 10.0709 115.005 10.0709V10.0707Z" fill="black"/>
<path d="M121.526 12.7391L114.819 6.32594C114.819 6.32594 114.818 6.32561 114.818 6.32544C114.454 5.9793 114.123 5.82031 113.694 5.82031C113.264 5.82031 112.898 5.97798 112.641 6.27915C112.388 6.5757 112.264 6.98527 112.264 7.45498V17.0847C112.264 17.228 112.38 17.344 112.523 17.344H114.746C114.889 17.344 115.005 17.2279 115.005 17.0847V10.4612L121.71 16.9694C122.059 17.3172 122.406 17.4925 122.852 17.4925C123.267 17.4925 123.633 17.333 123.892 17.0326C124.149 16.7356 124.282 16.3227 124.282 15.8425V6.10896C124.282 5.96579 124.166 5.84964 124.023 5.84964H121.785C121.642 5.84964 121.526 5.96579 121.526 6.10896V12.7387L121.526 12.7391Z" fill="white"/>
<path d="M122.852 17.8693C122.323 17.8693 121.874 17.6679 121.439 17.2352L115.393 11.3668V17.0739C115.393 17.4306 115.103 17.7207 114.746 17.7207H112.524C112.167 17.7207 111.877 17.4306 111.877 17.0739V7.4442C111.877 6.87054 112.04 6.37694 112.347 6.01663C112.675 5.63309 113.153 5.42188 113.695 5.42188C114.236 5.42188 114.641 5.61051 115.086 6.03376C115.087 6.03491 115.088 6.0359 115.09 6.03706L121.139 11.8215V6.09834C121.139 5.74166 121.429 5.45153 121.786 5.45153H124.023C124.38 5.45153 124.67 5.74166 124.67 6.09834V15.8317C124.67 16.4092 124.503 16.9082 124.187 17.2749C123.856 17.6581 123.382 17.869 122.852 17.869V17.8693Z" fill="black"/>
<path d="M121.819 9.70153V16.3145C121.819 16.4252 121.753 16.5249 121.651 16.5685C121.549 16.612 121.432 16.5908 121.352 16.5142L114.644 10.1006L114.642 10.0987C114.323 9.7956 114.053 9.67188 113.711 9.67188C113.369 9.67188 113.07 9.79709 112.868 10.034C112.664 10.2726 112.557 10.6171 112.557 11.0306V20.6435H114.746V14.037C114.746 13.9258 114.812 13.8259 114.914 13.7826C114.948 13.7681 114.985 13.7607 115.022 13.7607C115.094 13.7607 115.162 13.7884 115.214 13.8388L121.918 20.3468L121.921 20.3493C122.233 20.6595 122.516 20.7919 122.868 20.7919C123.22 20.7919 123.494 20.6661 123.7 20.4278C123.911 20.1835 124.022 19.8344 124.022 19.4182V9.7017H121.819V9.70153Z" fill="#2970FF"/>
<path d="M113.707 9.67192C114.049 9.67192 114.319 9.79565 114.638 10.0988L114.64 10.1006L121.347 16.5142C121.4 16.5645 121.468 16.5908 121.538 16.5908C121.575 16.5908 121.612 16.5836 121.647 16.5686C121.749 16.5251 121.814 16.4254 121.814 16.3145V9.70158H124.018V19.4181C124.018 19.8341 123.907 20.1832 123.696 20.4277C123.49 20.666 123.202 20.7918 122.864 20.7918C122.526 20.7918 122.229 20.6595 121.917 20.3491L121.914 20.3467L115.21 13.8387C115.158 13.7884 115.09 13.7606 115.017 13.7606C114.98 13.7606 114.944 13.768 114.91 13.7825C114.807 13.8258 114.741 13.9256 114.741 14.0369V20.6434H112.552V11.0305C112.552 10.6169 112.66 10.2724 112.864 10.0339C113.066 9.79697 113.358 9.67176 113.707 9.67176M113.707 9.00781C113.165 9.00781 112.687 9.21902 112.359 9.60257C112.051 9.96288 111.889 10.4566 111.889 11.0303V20.6432C111.889 21.01 112.186 21.3072 112.553 21.3072H114.742C115.108 21.3072 115.405 21.01 115.405 20.6432V14.9534L121.45 20.8212C121.886 21.254 122.335 21.4554 122.864 21.4554C123.394 21.4554 123.868 21.2444 124.199 20.8614C124.515 20.4945 124.682 19.9954 124.682 19.418V9.70142C124.682 9.33468 124.385 9.03747 124.018 9.03747H121.815C121.448 9.03747 121.151 9.33468 121.151 9.70142V15.4073L115.1 9.62118L115.099 9.62052C115.098 9.61937 115.097 9.61822 115.095 9.61723C114.652 9.19579 114.223 9.00798 113.707 9.00798L113.707 9.00781Z" fill="black"/>
<path d="M95.7695 9.73588C95.7695 9.59255 95.6534 9.47656 95.5102 9.47656H89.489C86.24 9.47656 83.8379 11.7801 83.8379 15.1121C83.8379 18.444 86.2103 20.9573 89.4571 20.9739C89.4676 20.9752 89.4782 20.9759 89.489 20.9759H95.5102C95.6535 20.9759 95.7695 20.8597 95.7695 20.7166V18.3606C95.7695 18.2173 95.6534 18.1013 95.5102 18.1013H89.489C87.8674 18.1013 86.7006 16.9238 86.7006 15.2336C86.7006 13.5435 87.8812 12.3508 89.489 12.3508H95.5102C95.6535 12.3508 95.7695 12.2347 95.7695 12.0915V9.73588Z" fill="#2970FF"/>
<path d="M95.5103 21.3039H89.4891C89.473 21.3039 89.4564 21.3032 89.4396 21.3018C87.7912 21.2892 86.2824 20.6503 85.1895 19.5015C84.1037 18.3603 83.5059 16.8001 83.5059 15.1081C83.5059 14.2497 83.6573 13.4387 83.956 12.6978C84.2469 11.9763 84.6693 11.3392 85.2119 10.8045C85.7508 10.2731 86.3907 9.85977 87.1138 9.57557C87.8484 9.28692 88.6474 9.14062 89.4888 9.14062H95.51C95.836 9.14062 96.1013 9.40588 96.1013 9.73192V12.0875C96.1013 12.4136 95.836 12.6788 95.51 12.6788H89.4888C88.7983 12.6788 88.1736 12.9299 87.7294 13.3858C87.2798 13.8472 87.0324 14.5021 87.0324 15.2297C87.0324 16.7227 88.0425 17.7654 89.4888 17.7654H95.51C95.836 17.7654 96.1013 18.0306 96.1013 18.3567V20.7126C96.1013 21.0386 95.836 21.3039 95.51 21.3039H95.5103ZM89.4939 20.64H95.4377V18.4293H89.4891C88.6123 18.4293 87.8169 18.1097 87.2495 17.5294C86.6816 16.9487 86.3689 16.1319 86.3689 15.2298C86.3689 14.3278 86.6834 13.5088 87.2545 12.9227C87.8245 12.3375 88.6183 12.0152 89.4893 12.0152H95.4378V9.80474H89.4893C88.7313 9.80474 88.014 9.93555 87.3571 10.1937C86.7179 10.4448 86.1531 10.8096 85.6784 11.2775C85.201 11.748 84.8288 12.3095 84.5721 12.9462C84.3054 13.6079 84.1701 14.3352 84.1701 15.1083C84.1701 16.6291 84.7031 18.027 85.6707 19.0442C86.6414 20.0646 87.9868 20.6307 89.459 20.6383C89.4707 20.6383 89.4824 20.639 89.4941 20.6403L89.4939 20.64Z" fill="black"/>
<path d="M97.0625 15.1129C97.0625 18.43 99.4425 20.9757 102.696 20.9757H105.391C108.688 20.9757 111.069 18.4315 111.069 15.1129C111.069 13.4581 110.493 12.045 109.484 11.0455C108.476 10.0459 107.053 9.47656 105.391 9.47656H102.696C99.4567 9.47656 97.0625 11.7813 97.0625 15.113V15.1129ZM108.216 15.2325C108.216 16.907 107.054 18.101 105.391 18.101H102.696C101.081 18.101 99.9178 16.924 99.9178 15.2325C99.9178 13.541 101.095 12.3493 102.696 12.3493H105.391C107.053 12.3493 108.216 13.5565 108.216 15.2325Z" fill="#2970FF"/>
<path d="M105.389 21.3039H102.694C101.036 21.3039 99.5173 20.6681 98.4169 19.5134C97.3282 18.371 96.7285 16.8068 96.7285 15.1091C96.7285 14.2507 96.8794 13.44 97.1771 12.6991C97.4671 11.9775 97.8882 11.3404 98.4291 10.8054C98.9663 10.2739 99.6044 9.86026 100.326 9.5759C101.058 9.28709 101.855 9.14062 102.694 9.14062H105.389C106.25 9.14062 107.061 9.2861 107.801 9.57277C108.532 9.85631 109.176 10.2713 109.716 10.8058C110.256 11.341 110.675 11.9809 110.961 12.7078C111.252 13.4439 111.399 14.2517 111.399 15.1091C111.399 16.8098 110.797 18.3745 109.704 19.5147C108.598 20.6685 107.065 21.3039 105.389 21.3039H105.389ZM102.694 9.80457C101.939 9.80457 101.224 9.93555 100.569 10.1936C99.9319 10.4448 99.3692 10.8094 98.896 11.2775C98.4202 11.7481 98.0492 12.3098 97.7933 12.9466C97.5274 13.6084 97.3925 14.3359 97.3925 15.1091C97.3925 16.6355 97.9269 18.037 98.8975 19.0554C99.8713 20.0772 101.22 20.64 102.694 20.64H105.389C106.151 20.64 106.874 20.4976 107.538 20.2167C108.178 19.9462 108.745 19.5554 109.225 19.0552C110.199 18.0392 110.735 16.6376 110.735 15.1089C110.735 14.3354 110.604 13.6095 110.344 12.9513C110.091 12.3106 109.723 11.7473 109.248 11.2773C108.774 10.8074 108.206 10.4422 107.561 10.1917C106.898 9.93473 106.167 9.80457 105.389 9.80457H102.694H102.694ZM105.389 18.4292H102.694C101.82 18.4292 101.027 18.1094 100.462 17.5289C99.8957 16.948 99.584 16.1312 99.584 15.2289C99.584 14.3265 99.8973 13.5077 100.467 12.9215C101.035 12.3361 101.826 12.0137 102.694 12.0137H105.389C106.281 12.0137 107.088 12.3381 107.662 12.9271C108.232 13.5115 108.546 14.329 108.546 15.2289C108.546 16.1287 108.232 16.9428 107.662 17.5235C107.089 18.1076 106.282 18.4293 105.389 18.4293V18.4292ZM102.694 12.6775C102.007 12.6775 101.385 12.9284 100.943 13.3838C100.495 13.8454 100.248 14.5007 100.248 15.2287C100.248 16.7222 101.254 17.7652 102.695 17.7652H105.389C106.112 17.7652 106.735 17.5207 107.188 17.0584C107.636 16.6026 107.882 15.9528 107.882 15.2289C107.882 13.7266 106.857 12.6777 105.389 12.6777H102.695L102.694 12.6775Z" fill="black"/>
<path d="M121.819 7.91247V14.5254C121.819 14.6361 121.753 14.7358 121.651 14.7795C121.549 14.823 121.432 14.8017 121.352 14.7251L114.644 8.3115L114.642 8.30968C114.323 8.00654 114.053 7.88281 113.711 7.88281C113.369 7.88281 113.07 8.00802 112.868 8.24494C112.664 8.4835 112.557 8.82799 112.557 9.24152V18.8544H114.746V12.2479C114.746 12.1367 114.812 12.0369 114.914 11.9935C114.948 11.979 114.985 11.9716 115.022 11.9716C115.094 11.9716 115.162 11.9993 115.214 12.0497L121.918 18.5577L121.921 18.5602C122.233 18.8704 122.516 19.0029 122.868 19.0029C123.22 19.0029 123.494 18.877 123.7 18.6388C123.911 18.3945 124.022 18.0453 124.022 17.6292V7.91263H121.819V7.91247Z" fill="#DD1B1B"/>
<path d="M113.707 7.88286C114.049 7.88286 114.319 8.00659 114.638 8.30973L114.64 8.31155L121.347 14.7252C121.4 14.7754 121.468 14.8018 121.538 14.8018C121.575 14.8018 121.612 14.7945 121.647 14.7795C121.749 14.736 121.814 14.6364 121.814 14.5255V7.91252H124.018V17.6291C124.018 18.0451 123.907 18.3942 123.696 18.6387C123.49 18.8769 123.202 19.0028 122.864 19.0028C122.526 19.0028 122.229 18.8705 121.917 18.5601L121.914 18.5576L115.21 12.0496C115.158 11.9993 115.09 11.9715 115.017 11.9715C114.98 11.9715 114.944 11.9789 114.91 11.9934C114.807 12.0367 114.741 12.1366 114.741 12.2478V18.8543H112.552V9.2414C112.552 8.82788 112.66 8.48338 112.864 8.24482C113.066 8.00791 113.358 7.8827 113.707 7.8827M113.707 7.21875C113.165 7.21875 112.687 7.42996 112.359 7.8135C112.051 8.17381 111.889 8.66758 111.889 9.24124V18.8542C111.889 19.2209 112.186 19.5181 112.553 19.5181H114.742C115.108 19.5181 115.405 19.2209 115.405 18.8542V13.1643L121.45 19.0321C121.886 19.4649 122.335 19.6664 122.864 19.6664C123.394 19.6664 123.868 19.4553 124.199 19.0723C124.515 18.7054 124.682 18.2064 124.682 17.6289V7.91235C124.682 7.54562 124.385 7.24841 124.018 7.24841H121.815C121.448 7.24841 121.151 7.54562 121.151 7.91235V13.6182L115.1 7.83261L115.099 7.83195C115.098 7.83064 115.097 7.82932 115.095 7.828C114.651 7.40657 114.223 7.21875 113.706 7.21875H113.707Z" fill="black"/>
<path d="M95.7695 8.06401C95.7695 7.92067 95.6534 7.80469 95.5102 7.80469H89.489C86.2419 7.80469 83.8379 10.0891 83.8379 13.3978C83.8379 16.7065 86.2123 19.1992 89.4572 19.2157C89.4676 19.217 89.4783 19.2175 89.4892 19.2175H95.5104C95.6537 19.2175 95.7697 19.1014 95.7697 18.9582V16.621C95.7697 16.4777 95.6535 16.3617 95.5104 16.3617H89.4892C87.8656 16.3617 86.7008 15.1923 86.7008 13.5186C86.7008 11.8449 87.8796 10.6607 89.4892 10.6607H95.5104C95.6537 10.6607 95.7697 10.5445 95.7697 10.4013V8.06417L95.7695 8.06401Z" fill="#DD1B1B"/>
<path d="M95.5103 19.5533H89.4891C89.4722 19.5533 89.456 19.5527 89.4402 19.5515C87.7927 19.5393 86.2842 18.9055 85.1911 17.7658C84.1044 16.6326 83.5059 15.0828 83.5059 13.4019C83.5059 12.5489 83.6576 11.7431 83.9566 11.007C84.2477 10.2905 84.6707 9.65804 85.2137 9.12704C85.7526 8.6 86.3925 8.18977 87.1156 7.90788C87.8497 7.62171 88.6482 7.47656 89.489 7.47656H95.5101C95.8362 7.47656 96.1014 7.74181 96.1014 8.06786V10.4049C96.1014 10.7309 95.8362 10.9961 95.5101 10.9961H89.489C88.7975 10.9961 88.1721 11.2453 87.7281 11.6977C87.2797 12.1545 87.0325 12.8025 87.0325 13.5221C87.0325 15.0006 88.0426 16.0333 89.489 16.0333H95.5101C95.8362 16.0333 96.1014 16.2985 96.1014 16.6246V18.9617C96.1014 19.2878 95.8362 19.553 95.5101 19.553L95.5103 19.5533ZM89.4916 18.8894H95.4377V16.6974H89.4891C88.6123 16.6974 87.8169 16.3802 87.2497 15.8046C86.6816 15.2281 86.3687 14.4175 86.3687 13.5224C86.3687 11.6741 87.681 10.3325 89.4891 10.3325H95.4377V8.14051H89.4891C88.7313 8.14051 88.0138 8.27034 87.3569 8.52652C86.7177 8.77579 86.1528 9.13742 85.6781 9.60169C85.2008 10.0684 84.8287 10.6255 84.572 11.257C84.3052 11.9133 84.17 12.6349 84.17 13.4019C84.17 14.9106 84.7028 16.2972 85.6704 17.3061C86.6412 18.3185 87.9868 18.8802 89.459 18.8876C89.4699 18.8876 89.4809 18.8882 89.4918 18.8894H89.4916Z" fill="black"/>
<path d="M97.0625 13.3987C97.0625 16.6927 99.4443 19.2175 102.696 19.2175H105.391C108.686 19.2175 111.069 16.6943 111.069 13.3987C111.069 11.7559 110.492 10.3532 109.483 9.36126C108.475 8.36962 107.053 7.80469 105.391 7.80469H102.697C99.4585 7.80469 97.0627 10.0903 97.0627 13.3987H97.0625ZM108.216 13.5176C108.216 15.176 107.056 16.3614 105.391 16.3614H102.696C101.079 16.3614 99.9178 15.1925 99.9178 13.5176C99.9178 11.8427 101.093 10.6592 102.696 10.6592H105.391C107.055 10.6592 108.216 11.8579 108.216 13.5176Z" fill="#DD1B1B"/>
<path d="M105.389 19.5533H102.694C101.037 19.5533 99.5189 18.9225 98.4185 17.7772C97.3287 16.6428 96.7285 15.0892 96.7285 13.4025C96.7285 12.5498 96.8796 11.7441 97.1778 11.0082C97.4679 10.2917 97.8895 9.65903 98.4307 9.12803C98.9681 8.60066 99.6062 8.19027 100.327 7.90821C101.059 7.62187 101.856 7.47656 102.694 7.47656H105.389C106.249 7.47656 107.06 7.62072 107.799 7.90508C108.531 8.18631 109.175 8.59803 109.714 9.12836C110.255 9.65968 110.674 10.2953 110.961 11.0171C111.252 11.7482 111.399 12.5507 111.399 13.4025C111.399 15.0922 110.797 16.6463 109.703 17.7785C108.597 18.923 107.065 19.5533 105.389 19.5533H105.389ZM102.694 8.14051C101.939 8.14051 101.224 8.27033 100.569 8.52652C99.9319 8.77579 99.369 9.13759 98.8958 9.60186C98.42 10.0688 98.0492 10.6258 97.7933 11.2574C97.5274 11.9138 97.3926 12.6356 97.3926 13.4027C97.3926 14.9171 97.9271 16.3072 98.8975 17.3173C99.8715 18.3312 101.22 18.8896 102.695 18.8896H105.389C106.151 18.8896 106.874 18.7482 107.538 18.4696C108.178 18.2012 108.745 17.8136 109.225 17.3172C110.199 16.3094 110.735 14.9192 110.735 13.4025C110.735 12.6353 110.604 11.9151 110.344 11.2624C110.091 10.6268 109.723 10.0681 109.249 9.60169C108.775 9.13545 108.207 8.77316 107.561 8.52471C106.898 8.26968 106.167 8.14051 105.389 8.14051H102.694ZM105.389 16.6972H102.694C101.82 16.6972 101.027 16.3801 100.462 15.8041C99.8957 15.2275 99.5838 14.4169 99.5838 13.5215C99.5838 11.6728 100.892 10.331 102.694 10.331H105.389C106.28 10.331 107.088 10.6528 107.662 11.2372C108.232 11.8173 108.546 12.6285 108.546 13.5215C108.546 14.4144 108.232 15.2222 107.662 15.7987C107.089 16.3781 106.281 16.6972 105.389 16.6972H105.389ZM102.694 10.995C102.006 10.995 101.383 11.2439 100.941 11.696C100.494 12.153 100.248 12.8013 100.248 13.5215C100.248 15.0004 101.254 16.0333 102.695 16.0333H105.389C106.113 16.0333 106.736 15.7907 107.19 15.3317C107.636 14.8805 107.882 14.2375 107.882 13.5215C107.882 12.0339 106.857 10.995 105.389 10.995H102.695H102.694Z" fill="black"/>
<path d="M95.7695 6.16557C95.7695 6.02223 95.6534 5.90625 95.5102 5.90625H89.489C86.24 5.90625 83.8379 8.20981 83.8379 11.5417C83.8379 14.8737 86.2103 17.3871 89.4571 17.4036C89.4676 17.4049 89.4782 17.4056 89.489 17.4056H95.5102C95.6535 17.4056 95.7695 17.2894 95.7695 17.1463V14.7906C95.7695 14.6473 95.6534 14.5313 95.5102 14.5313H89.489C87.8674 14.5313 86.7006 13.3535 86.7006 11.6635C86.7006 9.97347 87.8812 8.78083 89.489 8.78083H95.5102C95.6535 8.78083 95.7695 8.66468 95.7695 8.52152V6.1659V6.16557Z" fill="white"/>
<path d="M95.5101 17.7258H89.489C89.4727 17.7258 89.456 17.7251 89.4392 17.7236C87.791 17.7113 86.2823 17.0724 85.1893 15.9236C84.1036 14.7823 83.5059 13.2221 83.5059 11.53C83.5059 10.6716 83.6573 9.86054 83.956 9.11965C84.2469 8.3982 84.6693 7.76111 85.2119 7.22633C85.7508 6.695 86.3907 6.28164 87.1138 5.99744C87.8484 5.7088 88.6474 5.5625 89.4888 5.5625H95.51C95.836 5.5625 96.1013 5.82775 96.1013 6.15379V8.50941C96.1013 8.83545 95.836 9.1007 95.51 9.1007H89.4888C88.7983 9.1007 88.1736 9.35179 87.7294 9.80765C87.2798 10.2691 87.0324 10.924 87.0324 11.6516C87.0324 13.1447 88.0425 14.1874 89.4888 14.1874H95.51C95.836 14.1874 96.1013 14.4527 96.1013 14.7787V17.1343C96.1013 17.4604 95.836 17.7256 95.51 17.7256L95.5101 17.7258ZM89.4939 17.062H95.4375V14.8515H89.489C88.6122 14.8515 87.8167 14.5319 87.2493 13.9515C86.6814 13.3706 86.3687 12.5539 86.3687 11.6517C86.3687 10.7495 86.6833 9.93072 87.2543 9.34454C87.8243 8.75934 88.6181 8.43692 89.4891 8.43692H95.4377V6.22645H89.4891C88.7311 6.22645 88.0138 6.35726 87.3569 6.61543C86.7177 6.86667 86.1529 7.23127 85.6783 7.69916C85.2008 8.16969 84.8287 8.73117 84.572 9.36793C84.3052 10.0296 84.17 10.757 84.17 11.53C84.17 13.051 84.7029 14.4487 85.6705 15.4659C86.6412 16.4864 87.9866 17.0524 89.4588 17.0599C89.4705 17.0599 89.4824 17.0605 89.4941 17.0618L89.4939 17.062Z" fill="black"/>
<path d="M97.0625 11.5426C97.0625 14.8597 99.4425 17.4056 102.696 17.4056H105.391C108.688 17.4056 111.069 14.8613 111.069 11.5426C111.069 9.8878 110.493 8.47489 109.484 7.47518C108.476 6.47563 107.053 5.90625 105.391 5.90625H102.696C99.4567 5.90625 97.0625 8.21096 97.0625 11.5426ZM108.216 11.6625C108.216 13.3369 107.054 14.5308 105.391 14.5308H102.696C101.081 14.5308 99.9178 13.3538 99.9178 11.6625C99.9178 9.97116 101.095 8.77919 102.696 8.77919H105.391C107.053 8.77919 108.216 9.98632 108.216 11.6625Z" fill="white"/>
<path d="M105.389 17.7258H102.694C101.036 17.7258 99.5173 17.0898 98.4169 15.9353C97.3282 14.7929 96.7285 13.2287 96.7285 11.5308C96.7285 10.6726 96.8794 9.86169 97.1771 9.12081C97.4671 8.39919 97.8882 7.7621 98.4291 7.22732C98.9663 6.69583 99.6044 6.28214 100.326 5.99777C101.058 5.70896 101.855 5.5625 102.694 5.5625H105.389C106.25 5.5625 107.061 5.70798 107.801 5.99464C108.532 6.27818 109.176 6.69319 109.716 7.22764C110.256 7.76292 110.675 8.40282 110.961 9.12954C111.252 9.86548 111.399 10.6734 111.399 11.5306C111.399 13.2315 110.797 14.7962 109.704 15.9364C108.598 17.0902 107.065 17.7256 105.389 17.7256L105.389 17.7258ZM102.694 6.22645C101.939 6.22645 101.224 6.35743 100.569 6.61543C99.9319 6.86667 99.3692 7.23127 98.896 7.69933C98.4202 8.17002 98.0492 8.73166 97.7933 9.36843C97.5274 10.0302 97.3926 10.7578 97.3926 11.5308C97.3926 13.0572 97.9271 14.4588 98.8976 15.4772C99.8715 16.499 101.22 17.0618 102.695 17.0618H105.389C106.151 17.0618 106.874 16.9195 107.538 16.6386C108.178 16.3681 108.745 15.9773 109.225 15.4771C110.199 14.4611 110.735 13.0595 110.735 11.5308C110.735 10.7573 110.604 10.0314 110.344 9.3732C110.091 8.73249 109.723 8.1692 109.248 7.69916C108.774 7.22929 108.207 6.86404 107.561 6.61362C106.898 6.3566 106.167 6.22628 105.389 6.22628H102.694V6.22645ZM105.389 14.8509H102.694C101.82 14.8509 101.027 14.5311 100.462 13.9507C99.8957 13.3697 99.584 12.5529 99.584 11.6506C99.584 10.7482 99.8973 9.92941 100.467 9.34322C101.035 8.75786 101.826 8.43544 102.694 8.43544H105.389C106.281 8.43544 107.088 8.75983 107.662 9.34882C108.232 9.93319 108.546 10.7507 108.546 11.6507C108.546 12.5508 108.232 13.3645 107.662 13.9452C107.089 14.5293 106.282 14.8509 105.389 14.8509ZM102.694 9.09939C102.007 9.09939 101.385 9.3503 100.943 9.80568C100.495 10.2673 100.248 10.9225 100.248 11.6506C100.248 13.1439 101.254 14.1869 102.694 14.1869H105.389C106.112 14.1869 106.734 13.9424 107.188 13.4801C107.636 13.0243 107.882 12.3745 107.882 11.6506C107.882 10.1484 106.857 9.09922 105.389 9.09922H102.695L102.694 9.09939Z" fill="black"/>
<path d="M121.819 6.13122V12.7442C121.819 12.8549 121.753 12.9546 121.651 12.9982C121.549 13.0417 121.432 13.0205 121.352 12.9439L114.644 6.53025L114.642 6.52843C114.323 6.22529 114.053 6.10156 113.711 6.10156C113.369 6.10156 113.07 6.22677 112.868 6.46369C112.664 6.70225 112.557 7.04674 112.557 7.46027V17.0732H114.746V10.4667C114.746 10.3554 114.812 10.2556 114.914 10.2123C114.948 10.1978 114.985 10.1904 115.022 10.1904C115.094 10.1904 115.162 10.218 115.214 10.2685L121.918 16.7765L121.921 16.7789C122.233 17.0892 122.516 17.2216 122.868 17.2216C123.22 17.2216 123.494 17.0958 123.7 16.8575C123.911 16.6132 124.022 16.2641 124.022 15.8479V6.13138H121.819V6.13122Z" fill="white"/>
<path d="M113.707 6.10161C114.049 6.10161 114.319 6.22534 114.638 6.52848L114.64 6.5303L121.347 12.9439C121.4 12.9942 121.468 13.0205 121.538 13.0205C121.575 13.0205 121.612 13.0133 121.647 12.9983C121.749 12.9548 121.814 12.8551 121.814 12.7442V6.13127H124.018V15.8478C124.018 16.2638 123.907 16.6129 123.696 16.8574C123.49 17.0956 123.202 17.2215 122.864 17.2215C122.526 17.2215 122.229 17.0892 121.917 16.7788L121.914 16.7764L115.21 10.2683C115.158 10.2181 115.09 10.1903 115.017 10.1903C114.98 10.1903 114.944 10.1977 114.91 10.2122C114.807 10.2555 114.741 10.3553 114.741 10.4665V17.0731H112.552V7.46016C112.552 7.04663 112.66 6.70213 112.864 6.46357C113.066 6.22666 113.358 6.10145 113.707 6.10145M113.707 5.4375C113.165 5.4375 112.687 5.64871 112.359 6.03225C112.051 6.39256 111.889 6.88633 111.889 7.45999V17.0729C111.889 17.4396 112.186 17.7369 112.553 17.7369H114.742C115.108 17.7369 115.405 17.4396 115.405 17.0729V11.3831L121.45 17.2508C121.886 17.6836 122.335 17.8851 122.864 17.8851C123.394 17.8851 123.868 17.6741 124.199 17.291C124.515 16.9241 124.682 16.4251 124.682 15.8477V6.1311C124.682 5.76437 124.385 5.46715 124.018 5.46715H121.815C121.448 5.46715 121.151 5.76437 121.151 6.1311V11.8369L115.1 6.05087L115.099 6.05021C115.098 6.04906 115.097 6.0479 115.095 6.04692C114.652 5.62548 114.223 5.43766 113.707 5.43766L113.707 5.4375Z" fill="black"/>
<mask id="path-51-outside-1_4594_77048" maskUnits="userSpaceOnUse" x="125.574" y="6.42969" width="27" height="15" fill="black">
<rect fill="white" x="125.574" y="6.42969" width="27" height="15"/>
<path d="M130.065 13.3178H127.197L129.032 8.92618H130.917L130.065 13.3178ZM132.53 18.1847C132.901 17.8897 133.071 17.7532 133.038 17.775C134.109 16.8901 134.95 16.1637 135.562 15.5956C136.184 15.0275 136.709 14.4321 137.135 13.8094C137.561 13.1867 137.774 12.5804 137.774 11.9905C137.774 11.5426 137.67 11.193 137.462 10.9418C137.255 10.6905 136.944 10.5649 136.528 10.5649C136.113 10.5649 135.786 10.7233 135.545 11.0401C135.316 11.346 135.201 11.7829 135.201 12.351H132.497C132.519 11.4224 132.716 10.6468 133.087 10.0241C133.47 9.4014 133.967 8.94257 134.578 8.6476C135.201 8.35264 135.889 8.20516 136.643 8.20516C137.943 8.20516 138.921 8.53836 139.576 9.20475C140.243 9.87115 140.576 10.7396 140.576 11.8102C140.576 12.9792 140.177 14.0662 139.38 15.0712C138.582 16.0653 137.566 17.0376 136.332 17.9881H140.756V20.2658H132.53V18.1847ZM148.069 11.6955C147.982 11.2913 147.829 10.9909 147.611 10.7943C147.392 10.5867 147.081 10.4829 146.677 10.4829C146.054 10.4829 145.606 10.756 145.333 11.3023C145.06 11.8376 144.918 12.6897 144.907 13.8586C145.147 13.4762 145.491 13.1758 145.939 12.9573C146.398 12.7388 146.901 12.6296 147.447 12.6296C148.517 12.6296 149.375 12.9682 150.019 13.6456C150.675 14.3229 151.003 15.2679 151.003 16.4805C151.003 17.278 150.839 17.9771 150.511 18.578C150.194 19.1788 149.724 19.6486 149.102 19.9872C148.49 20.3259 147.764 20.4952 146.922 20.4952C145.24 20.4952 144.071 19.9709 143.416 18.9221C142.76 17.8624 142.432 16.3439 142.432 14.3666C142.432 12.2909 142.777 10.7506 143.465 9.74552C144.164 8.72954 145.278 8.22155 146.808 8.22155C147.627 8.22155 148.315 8.38542 148.872 8.71315C149.44 9.02996 149.867 9.45056 150.151 9.97493C150.446 10.4993 150.62 11.0728 150.675 11.6955H148.069ZM146.775 14.8418C146.305 14.8418 145.912 14.9838 145.595 15.2679C145.289 15.541 145.136 15.9343 145.136 16.4477C145.136 16.9721 145.278 17.3817 145.562 17.6767C145.857 17.9717 146.272 18.1192 146.808 18.1192C147.288 18.1192 147.665 17.9771 147.938 17.6931C148.222 17.3981 148.364 16.9994 148.364 16.4969C148.364 15.9834 148.228 15.5792 147.955 15.2842C147.682 14.9893 147.288 14.8418 146.775 14.8418Z"/>
</mask>
<path d="M130.065 13.3178H127.197L129.032 8.92618H130.917L130.065 13.3178ZM132.53 18.1847C132.901 17.8897 133.071 17.7532 133.038 17.775C134.109 16.8901 134.95 16.1637 135.562 15.5956C136.184 15.0275 136.709 14.4321 137.135 13.8094C137.561 13.1867 137.774 12.5804 137.774 11.9905C137.774 11.5426 137.67 11.193 137.462 10.9418C137.255 10.6905 136.944 10.5649 136.528 10.5649C136.113 10.5649 135.786 10.7233 135.545 11.0401C135.316 11.346 135.201 11.7829 135.201 12.351H132.497C132.519 11.4224 132.716 10.6468 133.087 10.0241C133.47 9.4014 133.967 8.94257 134.578 8.6476C135.201 8.35264 135.889 8.20516 136.643 8.20516C137.943 8.20516 138.921 8.53836 139.576 9.20475C140.243 9.87115 140.576 10.7396 140.576 11.8102C140.576 12.9792 140.177 14.0662 139.38 15.0712C138.582 16.0653 137.566 17.0376 136.332 17.9881H140.756V20.2658H132.53V18.1847ZM148.069 11.6955C147.982 11.2913 147.829 10.9909 147.611 10.7943C147.392 10.5867 147.081 10.4829 146.677 10.4829C146.054 10.4829 145.606 10.756 145.333 11.3023C145.06 11.8376 144.918 12.6897 144.907 13.8586C145.147 13.4762 145.491 13.1758 145.939 12.9573C146.398 12.7388 146.901 12.6296 147.447 12.6296C148.517 12.6296 149.375 12.9682 150.019 13.6456C150.675 14.3229 151.003 15.2679 151.003 16.4805C151.003 17.278 150.839 17.9771 150.511 18.578C150.194 19.1788 149.724 19.6486 149.102 19.9872C148.49 20.3259 147.764 20.4952 146.922 20.4952C145.24 20.4952 144.071 19.9709 143.416 18.9221C142.76 17.8624 142.432 16.3439 142.432 14.3666C142.432 12.2909 142.777 10.7506 143.465 9.74552C144.164 8.72954 145.278 8.22155 146.808 8.22155C147.627 8.22155 148.315 8.38542 148.872 8.71315C149.44 9.02996 149.867 9.45056 150.151 9.97493C150.446 10.4993 150.62 11.0728 150.675 11.6955H148.069ZM146.775 14.8418C146.305 14.8418 145.912 14.9838 145.595 15.2679C145.289 15.541 145.136 15.9343 145.136 16.4477C145.136 16.9721 145.278 17.3817 145.562 17.6767C145.857 17.9717 146.272 18.1192 146.808 18.1192C147.288 18.1192 147.665 17.9771 147.938 17.6931C148.222 17.3981 148.364 16.9994 148.364 16.4969C148.364 15.9834 148.228 15.5792 147.955 15.2842C147.682 14.9893 147.288 14.8418 146.775 14.8418Z" fill="#DD1B1B"/>
<path d="M130.065 13.3178V14.1372C130.457 14.1372 130.794 13.859 130.869 13.4739L130.065 13.3178ZM127.197 13.3178L126.441 13.0019C126.335 13.2548 126.363 13.5438 126.515 13.772C126.667 14.0001 126.923 14.1372 127.197 14.1372V13.3178ZM129.032 8.92618V8.10684C128.702 8.10684 128.404 8.30535 128.276 8.61025L129.032 8.92618ZM130.917 8.92618L131.721 9.08225C131.768 8.84208 131.704 8.59366 131.549 8.40491C131.393 8.21616 131.161 8.10684 130.917 8.10684V8.92618ZM130.065 13.3178V12.4985H127.197V13.3178V14.1372H130.065V13.3178ZM127.197 13.3178L127.953 13.6338L129.788 9.24211L129.032 8.92618L128.276 8.61025L126.441 13.0019L127.197 13.3178ZM129.032 8.92618V9.74552H130.917V8.92618V8.10684H129.032V8.92618ZM130.917 8.92618L130.112 8.77011L129.26 13.1618L130.065 13.3178L130.869 13.4739L131.721 9.08225L130.917 8.92618ZM132.53 18.1847L132.021 17.5431C131.825 17.6985 131.711 17.9348 131.711 18.1847H132.53ZM133.038 17.775L132.516 17.1435C132.18 17.4214 132.12 17.9139 132.381 18.2639C132.641 18.6139 133.13 18.6987 133.493 18.4568L133.038 17.775ZM135.562 15.5956L135.009 14.9903L135.004 14.9952L135.562 15.5956ZM137.462 10.9418L136.831 11.4636V11.4636L137.462 10.9418ZM135.545 11.0401L134.892 10.5449L134.89 10.5485L135.545 11.0401ZM135.201 12.351V13.1704C135.654 13.1704 136.02 12.8035 136.02 12.351H135.201ZM132.497 12.351L131.678 12.3317C131.673 12.5523 131.757 12.7657 131.911 12.9235C132.065 13.0814 132.277 13.1704 132.497 13.1704V12.351ZM133.087 10.0241L132.389 9.59533L132.384 9.60436L133.087 10.0241ZM134.578 8.6476L134.228 7.90712L134.223 7.90957L134.578 8.6476ZM139.576 9.20475L138.992 9.77933L138.997 9.78411L139.576 9.20475ZM139.38 15.0712L140.019 15.5839L140.022 15.5805L139.38 15.0712ZM136.332 17.9881L135.832 17.3388C135.554 17.5528 135.443 17.92 135.556 18.2521C135.669 18.5841 135.981 18.8074 136.332 18.8074V17.9881ZM140.756 17.9881H141.576C141.576 17.5356 141.209 17.1687 140.756 17.1687V17.9881ZM140.756 20.2658V21.0852C141.209 21.0852 141.576 20.7183 141.576 20.2658H140.756ZM132.53 20.2658H131.711C131.711 20.7183 132.078 21.0852 132.53 21.0852V20.2658ZM132.53 18.1847L133.04 18.8263C133.225 18.6787 133.363 18.5692 133.45 18.4988C133.492 18.4647 133.528 18.4359 133.552 18.4157C133.552 18.4152 133.588 18.3861 133.62 18.3536C133.627 18.3469 133.639 18.335 133.653 18.3194C133.662 18.3092 133.694 18.2728 133.728 18.2206C133.744 18.1969 133.781 18.1376 133.812 18.0539C133.83 18.0036 133.92 17.7543 133.8 17.4608C133.64 17.0741 133.288 16.9737 133.122 16.9573C132.974 16.9428 132.859 16.9733 132.826 16.9823C132.743 17.005 132.682 17.0363 132.671 17.042C132.649 17.0534 132.631 17.0635 132.622 17.0688C132.604 17.0797 132.59 17.0892 132.584 17.0933L133.038 17.775L133.493 18.4568C133.488 18.4595 133.476 18.4679 133.459 18.4781C133.45 18.4831 133.433 18.4929 133.411 18.504C133.401 18.5095 133.34 18.5406 133.257 18.5633C133.224 18.5723 133.11 18.6027 132.962 18.5882C132.795 18.5719 132.444 18.4714 132.284 18.0848C132.164 17.7914 132.254 17.5422 132.272 17.4919C132.303 17.4083 132.34 17.3491 132.356 17.3255C132.389 17.2736 132.422 17.2375 132.43 17.2277C132.444 17.2125 132.455 17.201 132.461 17.1949C132.49 17.1668 132.514 17.1471 132.498 17.161C132.488 17.1695 132.464 17.1891 132.421 17.2233C132.339 17.2895 132.206 17.3957 132.021 17.5431L132.53 18.1847ZM133.038 17.775L133.56 18.4066C134.636 17.5173 135.491 16.7795 136.119 16.196L135.562 15.5956L135.004 14.9952C134.409 15.5479 133.581 16.263 132.516 17.1435L133.038 17.775ZM135.562 15.5956L136.114 16.2009C136.778 15.5951 137.345 14.9526 137.811 14.2721L137.135 13.8094L136.459 13.3468C136.072 13.9116 135.591 14.4599 135.009 14.9903L135.562 15.5956ZM137.135 13.8094L137.811 14.2721C138.304 13.551 138.593 12.7862 138.593 11.9905H137.774H136.954C136.954 12.3747 136.817 12.8224 136.459 13.3468L137.135 13.8094ZM137.774 11.9905H138.593C138.593 11.423 138.462 10.8647 138.094 10.4199L137.462 10.9418L136.831 11.4636C136.878 11.5213 136.954 11.6622 136.954 11.9905H137.774ZM137.462 10.9418L138.094 10.4199C137.69 9.93071 137.115 9.74552 136.528 9.74552V10.5649V11.3842C136.772 11.3842 136.82 11.4503 136.831 11.4636L137.462 10.9418ZM136.528 10.5649V9.74552C135.87 9.74552 135.295 10.0136 134.892 10.5449L135.545 11.0401L136.198 11.5353C136.276 11.4329 136.356 11.3842 136.528 11.3842V10.5649ZM135.545 11.0401L134.89 10.5485C134.513 11.0502 134.382 11.6878 134.382 12.351H135.201H136.02C136.02 11.8781 136.118 11.6417 136.201 11.5317L135.545 11.0401ZM135.201 12.351V11.5317H132.497V12.351V13.1704H135.201V12.351ZM132.497 12.351L133.316 12.3703C133.336 11.5441 133.509 10.9157 133.791 10.4438L133.087 10.0241L132.384 9.60436C131.922 10.3778 131.702 11.3008 131.678 12.3317L132.497 12.351ZM133.087 10.0241L133.785 10.4528C134.092 9.9533 134.475 9.60722 134.934 9.38564L134.578 8.6476L134.223 7.90957C133.459 8.27792 132.847 8.84949 132.389 9.59536L133.087 10.0241ZM134.578 8.6476L134.929 9.38807C135.432 9.14977 135.999 9.0245 136.643 9.0245V8.20516V7.38582C135.78 7.38582 134.97 7.55551 134.228 7.90714L134.578 8.6476ZM136.643 8.20516V9.0245C137.811 9.0245 138.543 9.3225 138.992 9.77931L139.576 9.20475L140.16 8.6302C139.299 7.75422 138.075 7.38582 136.643 7.38582V8.20516ZM139.576 9.20475L138.997 9.78411C139.488 10.2755 139.757 10.9248 139.757 11.8103H140.576H141.395C141.395 10.5545 140.997 9.46679 140.156 8.62539L139.576 9.20475ZM140.576 11.8103H139.757C139.757 12.7759 139.432 13.6867 138.738 14.5619L139.38 15.0712L140.022 15.5805C140.922 14.4456 141.395 13.1824 141.395 11.8103H140.576ZM139.38 15.0712L138.741 14.5585C137.992 15.492 137.026 16.4198 135.832 17.3388L136.332 17.9881L136.832 18.6373C138.107 17.6555 139.173 16.6387 140.019 15.5839L139.38 15.0712ZM136.332 17.9881V18.8074H140.756V17.9881V17.1687H136.332V17.9881ZM140.756 17.9881H139.937V20.2658H140.756H141.576V17.9881H140.756ZM140.756 20.2658V19.4465H132.53V20.2658V21.0852H140.756V20.2658ZM132.53 20.2658H133.349V18.1847H132.53H131.711V20.2658H132.53ZM148.069 11.6955L147.269 11.8687C147.35 12.2458 147.684 12.5149 148.069 12.5149V11.6955ZM147.611 10.7943L147.046 11.3883C147.052 11.3934 147.057 11.3984 147.062 11.4033L147.611 10.7943ZM145.333 11.3023L146.063 11.6746L146.066 11.6687L145.333 11.3023ZM144.907 13.8586L144.087 13.8509C144.084 14.2175 144.324 14.5417 144.676 14.6448C145.028 14.748 145.405 14.605 145.6 14.2946L144.907 13.8586ZM145.939 12.9573L145.587 12.2175L145.58 12.2209L145.939 12.9573ZM150.019 13.6456L149.426 14.2104L149.431 14.2154L150.019 13.6456ZM150.511 18.578L149.792 18.1856L149.786 18.1958L150.511 18.578ZM149.102 19.9872L148.71 19.2675L148.705 19.2704L149.102 19.9872ZM143.416 18.9221L142.719 19.3531L142.721 19.3564L143.416 18.9221ZM143.465 9.74552L142.79 9.28103L142.789 9.28259L143.465 9.74552ZM148.872 8.71315L148.457 9.41937C148.462 9.42255 148.468 9.42567 148.473 9.42873L148.872 8.71315ZM150.151 9.97493L149.43 10.3652L149.436 10.3766L150.151 9.97493ZM150.675 11.6955V12.5149C150.905 12.5149 151.124 12.4184 151.279 12.249C151.434 12.0796 151.511 11.8528 151.491 11.6239L150.675 11.6955ZM145.595 15.2679L146.141 15.879L146.142 15.8779L145.595 15.2679ZM145.562 17.6767L144.972 18.245C144.976 18.2487 144.979 18.2524 144.983 18.2561L145.562 17.6767ZM147.938 17.6931L147.348 17.1248L147.348 17.1252L147.938 17.6931ZM148.069 11.6955L148.87 11.5224C148.761 11.0163 148.548 10.5354 148.159 10.1853L147.611 10.7943L147.062 11.4033C147.11 11.4464 147.203 11.5663 147.269 11.8687L148.069 11.6955ZM147.611 10.7943L148.175 10.2003C147.758 9.80438 147.217 9.66358 146.677 9.66358V10.4829V11.3023C146.944 11.3023 147.026 11.369 147.046 11.3883L147.611 10.7943ZM146.677 10.4829V9.66358C146.243 9.66358 145.822 9.75973 145.447 9.98821C145.071 10.2173 144.794 10.5481 144.6 10.9358L145.333 11.3023L146.066 11.6687C146.145 11.5102 146.228 11.4314 146.3 11.3873C146.373 11.3427 146.487 11.3023 146.677 11.3023V10.4829ZM145.333 11.3023L144.603 10.9299C144.24 11.6415 144.099 12.6533 144.087 13.8509L144.907 13.8586L145.726 13.8663C145.737 12.7261 145.879 12.0337 146.063 11.6746L145.333 11.3023ZM144.907 13.8586L145.6 14.2946C145.751 14.0548 145.973 13.8524 146.298 13.6937L145.939 12.9573L145.58 12.2209C145.009 12.4992 144.543 12.8977 144.213 13.4226L144.907 13.8586ZM145.939 12.9573L146.291 13.6971C146.632 13.5348 147.013 13.4489 147.447 13.4489V12.6296V11.8103C146.788 11.8103 146.164 11.9428 145.587 12.2176L145.939 12.9573ZM147.447 12.6296V13.4489C148.329 13.4489 148.959 13.7197 149.426 14.2104L150.019 13.6456L150.613 13.0807C149.791 12.2168 148.706 11.8103 147.447 11.8103V12.6296ZM150.019 13.6456L149.431 14.2154C149.899 14.6997 150.183 15.4171 150.183 16.4805H151.003H151.822C151.822 15.1186 151.45 13.9461 150.608 13.0758L150.019 13.6456ZM151.003 16.4805H150.183C150.183 17.1636 150.044 17.7237 149.792 18.1856L150.511 18.578L151.23 18.9703C151.634 18.2306 151.822 17.3923 151.822 16.4805H151.003ZM150.511 18.578L149.786 18.1958C149.548 18.6473 149.198 19.0025 148.71 19.2675L149.102 19.9872L149.493 20.707C150.251 20.2947 150.84 19.7104 151.236 18.9601L150.511 18.578ZM149.102 19.9872L148.705 19.2704C148.237 19.5294 147.653 19.6759 146.922 19.6759V20.4952V21.3146C147.874 21.3146 148.743 21.1224 149.499 20.7041L149.102 19.9872ZM146.922 20.4952V19.6759C145.409 19.6759 144.565 19.2146 144.11 18.4879L143.416 18.9221L142.721 19.3564C143.578 20.7272 145.071 21.3146 146.922 21.3146V20.4952ZM143.416 18.9221L144.112 18.4911C143.571 17.616 143.252 16.273 143.252 14.3666H142.432H141.613C141.613 16.4148 141.949 18.1088 142.719 19.3531L143.416 18.9221ZM142.432 14.3666H143.252C143.252 12.3523 143.591 11.0112 144.141 10.2084L143.465 9.74552L142.789 9.28259C141.962 10.4899 141.613 12.2295 141.613 14.3666H142.432ZM143.465 9.74552L144.14 10.21C144.649 9.47032 145.475 9.04089 146.808 9.04089V8.22155V7.40221C145.082 7.40221 143.679 7.98876 142.79 9.28103L143.465 9.74552ZM146.808 8.22155V9.04089C147.519 9.04089 148.055 9.18305 148.457 9.41937L148.872 8.71315L149.288 8.00694C148.575 7.58779 147.735 7.40221 146.808 7.40221V8.22155ZM148.872 8.71315L148.473 9.42873C148.918 9.67693 149.227 9.98988 149.43 10.3652L150.151 9.97493L150.871 9.5847C150.506 8.91123 149.963 8.383 149.271 7.99757L148.872 8.71315ZM150.151 9.97493L149.436 10.3766C149.672 10.7955 149.814 11.2558 149.859 11.7671L150.675 11.6955L151.491 11.6239C151.427 10.8898 151.219 10.2031 150.865 9.57324L150.151 9.97493ZM150.675 11.6955V10.8762H148.069V11.6955V12.5149H150.675V11.6955ZM146.775 14.8418V14.0225C146.126 14.0225 145.531 14.2246 145.048 14.6578L145.595 15.2679L146.142 15.8779C146.292 15.743 146.484 15.6611 146.775 15.6611V14.8418ZM145.595 15.2679L145.049 14.6567C144.527 15.1229 144.317 15.7641 144.317 16.4477H145.136H145.956C145.956 16.1044 146.051 15.959 146.141 15.879L145.595 15.2679ZM145.136 16.4477H144.317C144.317 17.1221 144.503 17.758 144.972 18.245L145.562 17.6767L146.152 17.1084C146.053 17.0055 145.956 16.8221 145.956 16.4477H145.136ZM145.562 17.6767L144.983 18.2561C145.472 18.7449 146.119 18.9385 146.808 18.9385V18.1192V17.2998C146.425 17.2998 146.243 17.1984 146.142 17.0974L145.562 17.6767ZM146.808 18.1192V18.9385C147.459 18.9385 148.068 18.74 148.529 18.261L147.938 17.6931L147.348 17.1252C147.262 17.2143 147.118 17.2998 146.808 17.2998V18.1192ZM147.938 17.6931L148.529 18.2614C148.991 17.7807 149.184 17.1605 149.184 16.4969H148.364H147.545C147.545 16.8383 147.453 17.0156 147.348 17.1248L147.938 17.6931ZM148.364 16.4969H149.184C149.184 15.8363 149.005 15.2125 148.556 14.7276L147.955 15.2842L147.354 15.8409C147.451 15.9459 147.545 16.1305 147.545 16.4969H148.364ZM147.955 15.2842L148.556 14.7276C148.087 14.2215 147.449 14.0225 146.775 14.0225V14.8418V15.6611C147.127 15.6611 147.276 15.7571 147.354 15.8409L147.955 15.2842Z" fill="black" mask="url(#path-51-outside-1_4594_77048)"/>
<mask id="path-53-outside-2_4594_77048" maskUnits="userSpaceOnUse" x="125.574" y="4.25781" width="27" height="15" fill="black">
<rect fill="white" x="125.574" y="4.25781" width="27" height="15"/>
<path d="M130.065 11.146H127.197L129.032 6.7543H130.917L130.065 11.146ZM132.53 16.0128C132.901 15.7179 133.071 15.5813 133.038 15.6032C134.109 14.7183 134.95 13.9918 135.562 13.4237C136.184 12.8556 136.709 12.2603 137.135 11.6376C137.561 11.0149 137.774 10.4086 137.774 9.81863C137.774 9.37072 137.67 9.02114 137.462 8.76988C137.255 8.51861 136.944 8.39298 136.528 8.39298C136.113 8.39298 135.786 8.55139 135.545 8.8682C135.316 9.17408 135.201 9.61106 135.201 10.1791H132.497C132.519 9.25056 132.716 8.47491 133.087 7.85222C133.47 7.22952 133.967 6.77069 134.578 6.47573C135.201 6.18077 135.889 6.03329 136.643 6.03329C137.943 6.03329 138.921 6.36648 139.576 7.03288C140.243 7.69927 140.576 8.56777 140.576 9.63837C140.576 10.8073 140.177 11.8943 139.38 12.8993C138.582 13.8935 137.566 14.8658 136.332 15.8162H140.756V18.0939H132.53V16.0128ZM148.069 9.52367C147.982 9.11946 147.829 8.81904 147.611 8.6224C147.392 8.41483 147.081 8.31105 146.677 8.31105C146.054 8.31105 145.606 8.58416 145.333 9.13039C145.06 9.66569 144.918 10.5178 144.907 11.6867C145.147 11.3044 145.491 11.0039 145.939 10.7854C146.398 10.567 146.901 10.4577 147.447 10.4577C148.517 10.4577 149.375 10.7964 150.019 11.4737C150.675 12.151 151.003 13.096 151.003 14.3086C151.003 15.1061 150.839 15.8053 150.511 16.4061C150.194 17.007 149.724 17.4767 149.102 17.8154C148.49 18.154 147.764 18.3234 146.922 18.3234C145.24 18.3234 144.071 17.799 143.416 16.7502C142.76 15.6906 142.432 14.172 142.432 12.1947C142.432 10.1191 142.777 8.5787 143.465 7.57364C144.164 6.55766 145.278 6.04967 146.808 6.04967C147.627 6.04967 148.315 6.21354 148.872 6.54128C149.44 6.85809 149.867 7.27868 150.151 7.80306C150.446 8.32743 150.62 8.90097 150.675 9.52367H148.069ZM146.775 12.6699C146.305 12.6699 145.912 12.8119 145.595 13.096C145.289 13.3691 145.136 13.7624 145.136 14.2758C145.136 14.8002 145.278 15.2099 145.562 15.5048C145.857 15.7998 146.272 15.9473 146.808 15.9473C147.288 15.9473 147.665 15.8053 147.938 15.5212C148.222 15.2263 148.364 14.8275 148.364 14.325C148.364 13.8115 148.228 13.4073 147.955 13.1124C147.682 12.8174 147.288 12.6699 146.775 12.6699Z"/>
</mask>
<path d="M130.065 11.146H127.197L129.032 6.7543H130.917L130.065 11.146ZM132.53 16.0128C132.901 15.7179 133.071 15.5813 133.038 15.6032C134.109 14.7183 134.95 13.9918 135.562 13.4237C136.184 12.8556 136.709 12.2603 137.135 11.6376C137.561 11.0149 137.774 10.4086 137.774 9.81863C137.774 9.37072 137.67 9.02114 137.462 8.76988C137.255 8.51861 136.944 8.39298 136.528 8.39298C136.113 8.39298 135.786 8.55139 135.545 8.8682C135.316 9.17408 135.201 9.61106 135.201 10.1791H132.497C132.519 9.25056 132.716 8.47491 133.087 7.85222C133.47 7.22952 133.967 6.77069 134.578 6.47573C135.201 6.18077 135.889 6.03329 136.643 6.03329C137.943 6.03329 138.921 6.36648 139.576 7.03288C140.243 7.69927 140.576 8.56777 140.576 9.63837C140.576 10.8073 140.177 11.8943 139.38 12.8993C138.582 13.8935 137.566 14.8658 136.332 15.8162H140.756V18.0939H132.53V16.0128ZM148.069 9.52367C147.982 9.11946 147.829 8.81904 147.611 8.6224C147.392 8.41483 147.081 8.31105 146.677 8.31105C146.054 8.31105 145.606 8.58416 145.333 9.13039C145.06 9.66569 144.918 10.5178 144.907 11.6867C145.147 11.3044 145.491 11.0039 145.939 10.7854C146.398 10.567 146.901 10.4577 147.447 10.4577C148.517 10.4577 149.375 10.7964 150.019 11.4737C150.675 12.151 151.003 13.096 151.003 14.3086C151.003 15.1061 150.839 15.8053 150.511 16.4061C150.194 17.007 149.724 17.4767 149.102 17.8154C148.49 18.154 147.764 18.3234 146.922 18.3234C145.24 18.3234 144.071 17.799 143.416 16.7502C142.76 15.6906 142.432 14.172 142.432 12.1947C142.432 10.1191 142.777 8.5787 143.465 7.57364C144.164 6.55766 145.278 6.04967 146.808 6.04967C147.627 6.04967 148.315 6.21354 148.872 6.54128C149.44 6.85809 149.867 7.27868 150.151 7.80306C150.446 8.32743 150.62 8.90097 150.675 9.52367H148.069ZM146.775 12.6699C146.305 12.6699 145.912 12.8119 145.595 13.096C145.289 13.3691 145.136 13.7624 145.136 14.2758C145.136 14.8002 145.278 15.2099 145.562 15.5048C145.857 15.7998 146.272 15.9473 146.808 15.9473C147.288 15.9473 147.665 15.8053 147.938 15.5212C148.222 15.2263 148.364 14.8275 148.364 14.325C148.364 13.8115 148.228 13.4073 147.955 13.1124C147.682 12.8174 147.288 12.6699 146.775 12.6699Z" fill="#FFED23"/>
<path d="M130.065 11.146V11.9653C130.457 11.9653 130.794 11.6872 130.869 11.302L130.065 11.146ZM127.197 11.146L126.441 10.83C126.335 11.0829 126.363 11.3719 126.515 11.6001C126.667 11.8282 126.923 11.9653 127.197 11.9653V11.146ZM129.032 6.7543V5.93497C128.702 5.93497 128.404 6.13348 128.276 6.43837L129.032 6.7543ZM130.917 6.7543L131.721 6.91037C131.768 6.67021 131.704 6.42178 131.549 6.23304C131.393 6.04429 131.161 5.93497 130.917 5.93497V6.7543ZM130.065 11.146V10.3266H127.197V11.146V11.9653H130.065V11.146ZM127.197 11.146L127.953 11.4619L129.788 7.07024L129.032 6.7543L128.276 6.43837L126.441 10.83L127.197 11.146ZM129.032 6.7543V7.57364H130.917V6.7543V5.93497H129.032V6.7543ZM130.917 6.7543L130.112 6.59824L129.26 10.9899L130.065 11.146L130.869 11.302L131.721 6.91037L130.917 6.7543ZM132.53 16.0128L132.021 15.3712C131.825 15.5266 131.711 15.7629 131.711 16.0128H132.53ZM133.038 15.6032L132.516 14.9716C132.18 15.2495 132.12 15.742 132.381 16.092C132.641 16.4421 133.13 16.5268 133.493 16.2849L133.038 15.6032ZM135.562 13.4237L135.009 12.8184L135.004 12.8233L135.562 13.4237ZM137.462 8.76988L136.831 9.2917V9.2917L137.462 8.76988ZM135.545 8.8682L134.892 8.37299L134.89 8.37659L135.545 8.8682ZM135.201 10.1791V10.9985C135.654 10.9985 136.02 10.6316 136.02 10.1791H135.201ZM132.497 10.1791L131.678 10.1599C131.673 10.3804 131.757 10.5938 131.911 10.7516C132.065 10.9095 132.277 10.9985 132.497 10.9985V10.1791ZM133.087 7.85222L132.389 7.42345L132.384 7.43249L133.087 7.85222ZM134.578 6.47573L134.228 5.73525L134.223 5.7377L134.578 6.47573ZM139.576 7.03288L138.992 7.60745L138.997 7.61224L139.576 7.03288ZM139.38 12.8993L140.019 13.412L140.022 13.4086L139.38 12.8993ZM136.332 15.8162L135.832 15.167C135.554 15.381 135.443 15.7481 135.556 16.0802C135.669 16.4122 135.981 16.6355 136.332 16.6355V15.8162ZM140.756 15.8162H141.576C141.576 15.3637 141.209 14.9968 140.756 14.9968V15.8162ZM140.756 18.0939V18.9133C141.209 18.9133 141.576 18.5465 141.576 18.0939H140.756ZM132.53 18.0939H131.711C131.711 18.5465 132.078 18.9133 132.53 18.9133V18.0939ZM132.53 16.0128L133.04 16.6545C133.225 16.5068 133.363 16.3973 133.45 16.327C133.492 16.2929 133.528 16.264 133.552 16.2438C133.552 16.2433 133.588 16.2143 133.62 16.1817C133.627 16.1751 133.639 16.1631 133.653 16.1475C133.662 16.1373 133.694 16.1009 133.728 16.0488C133.744 16.0251 133.781 15.9657 133.812 15.882C133.83 15.8317 133.92 15.5824 133.8 15.289C133.64 14.9023 133.288 14.8018 133.122 14.7855C132.974 14.7709 132.859 14.8014 132.826 14.8104C132.743 14.8331 132.682 14.8644 132.671 14.8701C132.649 14.8815 132.631 14.8916 132.622 14.8969C132.604 14.9079 132.59 14.9173 132.584 14.9214L133.038 15.6032L133.493 16.2849C133.488 16.2876 133.476 16.296 133.459 16.3062C133.45 16.3112 133.433 16.321 133.411 16.3322C133.401 16.3376 133.34 16.3688 133.257 16.3914C133.224 16.4004 133.11 16.4309 132.962 16.4163C132.795 16.4 132.444 16.2996 132.284 15.9129C132.164 15.6195 132.254 15.3703 132.272 15.3201C132.303 15.2365 132.34 15.1772 132.356 15.1536C132.389 15.1017 132.422 15.0656 132.43 15.0558C132.444 15.0407 132.455 15.0292 132.461 15.023C132.49 14.995 132.514 14.9753 132.498 14.9891C132.488 14.9976 132.464 15.0172 132.421 15.0514C132.339 15.1176 132.206 15.2239 132.021 15.3712L132.53 16.0128ZM133.038 15.6032L133.56 16.2347C134.636 15.3454 135.491 14.6076 136.119 14.0241L135.562 13.4237L135.004 12.8233C134.409 13.376 133.581 14.0911 132.516 14.9716L133.038 15.6032ZM135.562 13.4237L136.114 14.029C136.778 13.4232 137.345 12.7808 137.811 12.1002L137.135 11.6376L136.459 11.1749C136.072 11.7398 135.591 12.2881 135.009 12.8184L135.562 13.4237ZM137.135 11.6376L137.811 12.1002C138.304 11.3792 138.593 10.6143 138.593 9.81863H137.774H136.954C136.954 10.2028 136.817 10.6506 136.459 11.1749L137.135 11.6376ZM137.774 9.81863H138.593C138.593 9.25115 138.462 8.69283 138.094 8.24805L137.462 8.76988L136.831 9.2917C136.878 9.34945 136.954 9.4903 136.954 9.81863H137.774ZM137.462 8.76988L138.094 8.24805C137.69 7.75883 137.115 7.57364 136.528 7.57364V8.39298V9.21232C136.772 9.21232 136.82 9.27839 136.831 9.2917L137.462 8.76988ZM136.528 8.39298V7.57364C135.87 7.57364 135.295 7.84173 134.892 8.373L135.545 8.8682L136.198 9.36339C136.276 9.26104 136.356 9.21232 136.528 9.21232V8.39298ZM135.545 8.8682L134.89 8.37659C134.513 8.87834 134.382 9.51593 134.382 10.1791H135.201H136.02C136.02 9.70619 136.118 9.46983 136.201 9.3598L135.545 8.8682ZM135.201 10.1791V9.3598H132.497V10.1791V10.9985H135.201V10.1791ZM132.497 10.1791L133.316 10.1984C133.336 9.37221 133.509 8.74386 133.791 8.27195L133.087 7.85222L132.384 7.43249C131.922 8.20597 131.702 9.1289 131.678 10.1599L132.497 10.1791ZM133.087 7.85222L133.785 8.28095C134.092 7.78142 134.475 7.43534 134.934 7.21376L134.578 6.47573L134.223 5.7377C133.459 6.10604 132.847 6.67762 132.389 7.42349L133.087 7.85222ZM134.578 6.47573L134.929 7.2162C135.432 6.9779 135.999 6.85262 136.643 6.85262V6.03329V5.21395C135.78 5.21395 134.97 5.38364 134.228 5.73526L134.578 6.47573ZM136.643 6.03329V6.85262C137.811 6.85262 138.543 7.15063 138.992 7.60743L139.576 7.03288L140.16 6.45833C139.299 5.58234 138.075 5.21395 136.643 5.21395V6.03329ZM139.576 7.03288L138.997 7.61224C139.488 8.10364 139.757 8.75291 139.757 9.63838H140.576H141.395C141.395 8.38264 140.997 7.29491 140.156 6.45352L139.576 7.03288ZM140.576 9.63838H139.757C139.757 10.604 139.432 11.5148 138.738 12.3901L139.38 12.8993L140.022 13.4086C140.922 12.2737 141.395 11.0105 141.395 9.63838H140.576ZM139.38 12.8993L138.741 12.3866C137.992 13.3201 137.026 14.2479 135.832 15.167L136.332 15.8162L136.832 16.4654C138.107 15.4836 139.173 14.4668 140.019 13.412L139.38 12.8993ZM136.332 15.8162V16.6355H140.756V15.8162V14.9968H136.332V15.8162ZM140.756 15.8162H139.937V18.0939H140.756H141.576V15.8162H140.756ZM140.756 18.0939V17.2746H132.53V18.0939V18.9133H140.756V18.0939ZM132.53 18.0939H133.349V16.0128H132.53H131.711V18.0939H132.53ZM148.069 9.52367L147.269 9.69682C147.35 10.0739 147.684 10.343 148.069 10.343V9.52367ZM147.611 8.6224L147.046 9.21642C147.052 9.22148 147.057 9.22648 147.062 9.23141L147.611 8.6224ZM145.333 9.13039L146.063 9.50276L146.066 9.4968L145.333 9.13039ZM144.907 11.6867L144.087 11.6791C144.084 12.0456 144.324 12.3698 144.676 12.4729C145.028 12.5761 145.405 12.4331 145.6 12.1227L144.907 11.6867ZM145.939 10.7854L145.587 10.0457L145.58 10.0491L145.939 10.7854ZM150.019 11.4737L149.426 12.0385L149.431 12.0435L150.019 11.4737ZM150.511 16.4061L149.792 16.0137L149.786 16.024L150.511 16.4061ZM149.102 17.8154L148.71 17.0956L148.705 17.0985L149.102 17.8154ZM143.416 16.7502L142.719 17.1812L142.721 17.1845L143.416 16.7502ZM143.465 7.57364L142.79 7.10916L142.789 7.11071L143.465 7.57364ZM148.872 6.54128L148.457 7.24749C148.462 7.25068 148.468 7.2538 148.473 7.25686L148.872 6.54128ZM150.151 7.80306L149.43 8.19334L149.436 8.20475L150.151 7.80306ZM150.675 9.52367V10.343C150.905 10.343 151.124 10.2465 151.279 10.0771C151.434 9.90773 151.511 9.68094 151.491 9.45207L150.675 9.52367ZM145.595 13.096L146.141 13.7072L146.142 13.706L145.595 13.096ZM145.562 15.5048L144.972 16.0732C144.976 16.0769 144.979 16.0806 144.983 16.0842L145.562 15.5048ZM147.938 15.5212L147.348 14.9529L147.348 14.9533L147.938 15.5212ZM148.069 9.52367L148.87 9.35051C148.761 8.84445 148.548 8.36351 148.159 8.01339L147.611 8.6224L147.062 9.23141C147.11 9.27456 147.203 9.39447 147.269 9.69682L148.069 9.52367ZM147.611 8.6224L148.175 8.02838C147.758 7.63251 147.217 7.49171 146.677 7.49171V8.31105V9.13038C146.944 9.13038 147.026 9.19715 147.046 9.21642L147.611 8.6224ZM146.677 8.31105V7.49171C146.243 7.49171 145.822 7.58786 145.447 7.81633C145.071 8.04538 144.794 8.37625 144.6 8.76397L145.333 9.13039L146.066 9.4968C146.145 9.3383 146.228 9.2595 146.3 9.21543C146.373 9.17079 146.487 9.13038 146.677 9.13038V8.31105ZM145.333 9.13039L144.603 8.75802C144.24 9.46958 144.099 10.4814 144.087 11.6791L144.907 11.6867L145.726 11.6944C145.737 10.5542 145.879 9.8618 146.063 9.50275L145.333 9.13039ZM144.907 11.6867L145.6 12.1227C145.751 11.8829 145.973 11.6805 146.298 11.5218L145.939 10.7854L145.58 10.0491C145.009 10.3274 144.543 10.7258 144.213 11.2507L144.907 11.6867ZM145.939 10.7854L146.291 11.5252C146.632 11.363 147.013 11.2771 147.447 11.2771V10.4577V9.63838C146.788 9.63838 146.164 9.77096 145.587 10.0457L145.939 10.7854ZM147.447 10.4577V11.2771C148.329 11.2771 148.959 11.5478 149.426 12.0385L150.019 11.4737L150.613 10.9089C149.791 10.0449 148.706 9.63838 147.447 9.63838V10.4577ZM150.019 11.4737L149.431 12.0435C149.899 12.5278 150.183 13.2452 150.183 14.3086H151.003H151.822C151.822 12.9467 151.45 11.7742 150.608 10.9039L150.019 11.4737ZM151.003 14.3086H150.183C150.183 14.9918 150.044 15.5518 149.792 16.0138L150.511 16.4061L151.23 16.7985C151.634 16.0587 151.822 15.2204 151.822 14.3086H151.003ZM150.511 16.4061L149.786 16.024C149.548 16.4754 149.198 16.8306 148.71 17.0956L149.102 17.8154L149.493 18.5351C150.251 18.1228 150.84 17.5385 151.236 16.7883L150.511 16.4061ZM149.102 17.8154L148.705 17.0985C148.237 17.3576 147.653 17.504 146.922 17.504V18.3234V19.1427C147.874 19.1427 148.743 18.9505 149.499 18.5322L149.102 17.8154ZM146.922 18.3234V17.504C145.409 17.504 144.565 17.0427 144.11 16.316L143.416 16.7502L142.721 17.1845C143.578 18.5553 145.071 19.1427 146.922 19.1427V18.3234ZM143.416 16.7502L144.112 16.3192C143.571 15.4442 143.252 14.1012 143.252 12.1947H142.432H141.613C141.613 14.2429 141.949 15.9369 142.719 17.1812L143.416 16.7502ZM142.432 12.1947H143.252C143.252 10.1805 143.591 8.83935 144.141 8.03657L143.465 7.57364L142.789 7.11071C141.962 8.31805 141.613 10.0576 141.613 12.1947H142.432ZM143.465 7.57364L144.14 8.03813C144.649 7.29844 145.475 6.86901 146.808 6.86901V6.04967V5.23034C145.082 5.23034 143.679 5.81688 142.79 7.10916L143.465 7.57364ZM146.808 6.04967V6.86901C147.519 6.86901 148.055 7.01117 148.457 7.24749L148.872 6.54128L149.288 5.83506C148.575 5.41591 147.735 5.23034 146.808 5.23034V6.04967ZM148.872 6.54128L148.473 7.25686C148.918 7.50505 149.227 7.818 149.43 8.19329L150.151 7.80306L150.871 7.41282C150.506 6.73936 149.963 6.21112 149.271 5.8257L148.872 6.54128ZM150.151 7.80306L149.436 8.20475C149.672 8.62362 149.814 9.08397 149.859 9.59526L150.675 9.52367L151.491 9.45207C151.427 8.71797 151.219 8.03125 150.865 7.40137L150.151 7.80306ZM150.675 9.52367V8.70433H148.069V9.52367V10.343H150.675V9.52367ZM146.775 12.6699V11.8506C146.126 11.8506 145.531 12.0527 145.048 12.4859L145.595 13.096L146.142 13.706C146.292 13.5712 146.484 13.4893 146.775 13.4893V12.6699ZM145.595 13.096L145.049 12.4848C144.527 12.951 144.317 13.5922 144.317 14.2758H145.136H145.956C145.956 13.9325 146.051 13.7871 146.141 13.7072L145.595 13.096ZM145.136 14.2758H144.317C144.317 14.9502 144.503 15.5861 144.972 16.0732L145.562 15.5048L146.152 14.9365C146.053 14.8337 145.956 14.6502 145.956 14.2758H145.136ZM145.562 15.5048L144.983 16.0842C145.472 16.5731 146.119 16.7666 146.808 16.7666V15.9473V15.1279C146.425 15.1279 146.243 15.0265 146.142 14.9255L145.562 15.5048ZM146.808 15.9473V16.7666C147.459 16.7666 148.068 16.5681 148.529 16.0891L147.938 15.5212L147.348 14.9533C147.262 15.0424 147.118 15.1279 146.808 15.1279V15.9473ZM147.938 15.5212L148.529 16.0896C148.991 15.6088 149.184 14.9886 149.184 14.325H148.364H147.545C147.545 14.6664 147.453 14.8437 147.348 14.9529L147.938 15.5212ZM148.364 14.325H149.184C149.184 13.6645 149.005 13.0407 148.556 12.5557L147.955 13.1124L147.354 13.669C147.451 13.774 147.545 13.9586 147.545 14.325H148.364ZM147.955 13.1124L148.556 12.5557C148.087 12.0496 147.449 11.8506 146.775 11.8506V12.6699V13.4893C147.127 13.4893 147.276 13.5852 147.354 13.669L147.955 13.1124Z" fill="black" mask="url(#path-53-outside-2_4594_77048)"/>
</svg>
